<?xml version="1.0" ?><svg enable-background="new 0 0 24 24" id="Layer_1" version="1.1" viewBox="0 0 24 24" xml:space="preserve" xmlns="http://www.w3.org/2000/svg" xmlns:xlink="http://www.w3.org/1999/xlink"><g><path d="M12,0C5.3833008,0,0,5.3828125,0,12s5.3833008,12,12,12s12-5.3828125,12-12S18.6166992,0,12,0z" fill="#303C42"/><path d="M12,23C5.9345703,23,1,18.0654297,1,12S5.9345703,1,12,1s11,4.9345703,11,11S18.0654297,23,12,23z" fill="#FED600"/><path d="M19.119751,3.630249C20.7561646,5.5509644,21.75,8.0349121,21.75,10.75   c0,6.0654297-4.9345703,11-11,11c-2.7150879,0-5.1990356-0.9938354-7.119751-2.630249C5.6494751,21.4898682,8.6496582,23,12,23   c6.0654297,0,11-4.9345703,11-11C23,8.6496582,21.4898682,5.6494751,19.119751,3.630249z" fill="#010101" opacity="0.1"/><path d="M18.5,8C18.2236328,8,18,8.2236328,18,8.5c0,0.8271484-0.8969727,1.5-2,1.5s-2-0.6728516-2-1.5   C14,8.2236328,13.7763672,8,13.5,8S13,8.2236328,13,8.5c0,1.3789063,1.3457031,2.5,3,2.5s3-1.1210938,3-2.5   C19,8.2236328,18.7763672,8,18.5,8z" fill="#303C42"/><path d="M11,8.5C11,8.2236328,10.7763672,8,10.5,8S10,8.2236328,10,8.5C10,9.3271484,9.1030273,10,8,10   S6,9.3271484,6,8.5C6,8.2236328,5.7763672,8,5.5,8S5,8.2236328,5,8.5C5,9.8789063,6.3457031,11,8,11S11,9.8789063,11,8.5z" fill="#303C42"/><circle cx="12" cy="18" fill="#303C42" r="3"/><circle cx="12" cy="18" fill="#B72025" r="2"/><path d="M10.5,18.5c0-1.1025391,0.8969727-2,2-2   c0.4238281,0,0.8156128,0.1344604,1.1394043,0.3601685C13.27771,16.3416138,12.678894,16,12,16c-1.1030273,0-2,0.8974609-2,2   c0,0.678894,0.3417358,1.2780762,0.8605957,1.6398315C10.6346436,19.315918,10.5,18.9239502,10.5,18.5z" fill="#010101" opacity="0.1"/><path d="M18.5,16h-1.065918l1.4819336-2.2226563c0.1020508-0.1533203,0.1118164-0.3505859,0.0249023-0.5136719   C18.8540039,13.1015625,18.6845703,13,18.5,13h-2c-0.2763672,0-0.5,0.2236328-0.5,0.5s0.2236328,0.5,0.5,0.5h1.065918   l-1.4819336,2.2226563c-0.1020508,0.1533203-0.1118164,0.3505859-0.0249023,0.5136719C16.1459961,16.8984375,16.3154297,17,16.5,17   h2c0.2763672,0,0.5-0.2236328,0.5-0.5S18.7763672,16,18.5,16z" fill="#303C42"/><path d="M21.5,13h-0.190918l0.6381836-1.2763672c0.0776367-0.1552734,0.0693359-0.3388672-0.0219727-0.4863281   S21.6733398,11,21.5,11h-1c-0.2763672,0-0.5,0.2236328-0.5,0.5s0.2236328,0.5,0.5,0.5h0.190918l-0.6381836,1.2763672   c-0.0776367,0.1552734-0.0693359,0.3388672,0.0219727,0.4863281S20.3266602,14,20.5,14h1c0.2763672,0,0.5-0.2236328,0.5-0.5   S21.7763672,13,21.5,13z" fill="#303C42"/><linearGradient gradientUnits="userSpaceOnUse" id="SVGID_1_" x1="1.1248375" x2="22.8751621" y1="6.9288282" y2="17.0711708"><stop offset="0" style="stop-color:#FFFFFF;stop-opacity:0.2"/><stop offset="1" style="stop-color:#FFFFFF;stop-opacity:0"/></linearGradient><path d="M12,0C5.3833008,0,0,5.3828125,0,12s5.3833008,12,12,12s12-5.3828125,12-12S18.6166992,0,12,0z" fill="url(#SVGID_1_)"/></g><g/><g/><g/><g/><g/><g/><g/><g/><g/><g/><g/><g/><g/><g/><g/></svg>