<?xml version="1.0" ?><svg enable-background="new 0 0 24 24" id="Layer_1" version="1.1" viewBox="0 0 24 24" xml:space="preserve" xmlns="http://www.w3.org/2000/svg" xmlns:xlink="http://www.w3.org/1999/xlink"><g><path d="M12,0C5.3833008,0,0,5.3833008,0,12s5.3833008,12,12,12s12-5.3833008,12-12S18.6166992,0,12,0z" fill="#303C42"/><path d="M12,23C5.9345703,23,1,18.0654297,1,12S5.9345703,1,12,1s11,4.9345703,11,11S18.0654297,23,12,23z" fill="#FED600"/><path d="M18.9884033,3.5115967C20.5567017,5.413147,21.5,7.8484497,21.5,10.5   c0,6.0654297-4.9345703,11-11,11c-2.6515503,0-5.086853-0.9432983-6.9884033-2.5115967C5.5307617,21.4366455,8.5861206,23,12,23   c6.0654297,0,11-4.9345703,11-11C23,8.5861206,21.4366455,5.5307617,18.9884033,3.5115967z" fill="#010101" opacity="0.1"/><path d="M12,19c-2.6604004,0-5.2286377-2.0539551-5.9818115-4.7130737C6.3143311,13.9381104,6.5,13.4924927,6.5,13   c0-0.2763672-0.2236328-0.5-0.5-0.5S5.5,12.7236328,5.5,13c0,0.5512695-0.4487305,1-1,1C4.2236328,14,4,14.2236328,4,14.5   S4.2236328,15,4.5,15c0.2250977,0,0.4378662-0.0456543,0.6398926-0.114502C6.123291,17.7984619,9.0193481,20,12,20   c0.2763672,0,0.5-0.2236328,0.5-0.5S12.2763672,19,12,19z" fill="#303C42"/><path d="M4.7773438,9.9160156L7.5,8.1010742l2.7226563,1.8149414C10.3081055,9.9726563,10.4042969,10,10.4995117,10   c0.1616211,0,0.3203125-0.078125,0.4165039-0.2226563c0.1533203-0.2299805,0.0913086-0.5400391-0.1386719-0.6933594l-3-2   c-0.1679688-0.1123047-0.3867188-0.1123047-0.5546875,0l-3,2C3.9926758,9.2373047,3.9306641,9.5473633,4.0839844,9.7773438   C4.2358398,10.0068359,4.5458984,10.0683594,4.7773438,9.9160156z" fill="#303C42"/><path d="M19.7773438,9.0839844l-3-2c-0.1679688-0.1123047-0.3867188-0.1123047-0.5546875,0l-3,2   c-0.2299805,0.1533203-0.2919922,0.4633789-0.1386719,0.6933594c0.152832,0.2294922,0.4614258,0.2910156,0.6933594,0.1386719   L16.5,8.1010742l2.7226563,1.8149414C19.3081055,9.9726563,19.4042969,10,19.4995117,10   c0.1616211,0,0.3203125-0.078125,0.4165039-0.2226563C20.0693359,9.5473633,20.0073242,9.2373047,19.7773438,9.0839844z" fill="#303C42"/><linearGradient gradientUnits="userSpaceOnUse" id="SVGID_1_" x1="1.1249185" x2="22.875082" y1="6.9288664" y2="17.0711346"><stop offset="0" style="stop-color:#FFFFFF;stop-opacity:0.2"/><stop offset="1" style="stop-color:#FFFFFF;stop-opacity:0"/></linearGradient><path d="M12,0C5.3833008,0,0,5.3833008,0,12s5.3833008,12,12,12s12-5.3833008,12-12S18.6166992,0,12,0z" fill="url(#SVGID_1_)"/></g><g/><g/><g/><g/><g/><g/><g/><g/><g/><g/><g/><g/><g/><g/><g/></svg>