<?xml version="1.0" ?><svg enable-background="new 0 0 24 24" id="Layer_1" version="1.1" viewBox="0 0 24 24" xml:space="preserve" xmlns="http://www.w3.org/2000/svg" xmlns:xlink="http://www.w3.org/1999/xlink"><g><path d="M12,0C5.3828125,0,0,5.3833008,0,12s5.3828125,12,12,12s12-5.3833008,12-12S18.6171875,0,12,0z" fill="#303C42"/><path d="M12,23C5.9345703,23,1,18.0654297,1,12S5.9345703,1,12,1s11,4.9345703,11,11S18.0654297,23,12,23z" fill="#FED600"/><path d="M19.2507324,3.7492676C20.9562378,5.687561,22,8.2213745,22,11   c0,6.0654297-4.9345703,11-11,11c-2.7786255,0-5.312439-1.0437622-7.2507324-2.7492676C5.7666626,21.543457,8.7131958,23,12,23   c6.0654297,0,11-4.9345703,11-11C23,8.7131958,21.543457,5.7666626,19.2507324,3.7492676z" fill="#010101" opacity="0.1"/><circle cx="8" cy="9" fill="#303C42" r="2"/><circle cx="8" cy="9" fill="#BDDDF4" r="1"/><path d="M8.4080811,8.0916138C8.4647827,8.21698,8.5,8.3536987,8.5,8.5c0,0.5512695-0.4482422,1-1,1   c-0.1462402,0-0.2828369-0.0350342-0.4080811-0.0916138C7.2489014,9.7554321,7.5946655,10,8,10c0.5517578,0,1-0.4487305,1-1   C9,8.5947876,8.7554932,8.2485352,8.4080811,8.0916138z" fill="#010101" opacity="0.1"/><circle cx="16" cy="9" fill="#303C42" r="2"/><circle cx="16" cy="9" fill="#BDDDF4" r="1"/><path d="M16.4080811,8.0916138C16.4647827,8.21698,16.5,8.3536987,16.5,8.5   c0,0.5512695-0.4482422,1-1,1c-0.1462402,0-0.2828369-0.0350342-0.4080811-0.0916138C15.2489014,9.7554321,15.5946655,10,16,10   c0.5517578,0,1-0.4487305,1-1C17,8.5947876,16.7554932,8.2485352,16.4080811,8.0916138z" fill="#010101" opacity="0.1"/><path d="M18.0498047,13.5908203C16.4804688,12.5498047,14.6552734,12,12.7724609,12h-1.5556641   c-1.8759766,0-3.6923828,0.550293-5.2548828,1.5908203C5.359375,13.9926758,5,14.6645508,5,15.3886719V19   c0,0.1845703,0.1416016,0.3266602,0.3046875,0.4135742c0.1621094,0.0869141,0.4003906,0.0498047,0.5537109-0.0517578   C7.5537109,18.2314453,9.5429688,18,12.0078125,18c2.4580078,0,4.4414063,0.2290039,6.09375,1.3232422l0.0898438,0.0703125   C18.28125,19.4638672,18.390625,19.5,18.5,19.5c0.0742188,0,0.1494141-0.0166016,0.21875-0.050293   C18.890625,19.3657227,19,19.1914063,19,19v-3.6083984C19,14.6586914,18.6445313,13.9853516,18.0498047,13.5908203z" fill="#303C42"/><path d="M6.5166016,14.4228516C7.9140625,13.4921875,9.5390625,13,11.2167969,13h1.5556641   c1.6855469,0,3.3193359,0.4921875,4.7246094,1.4238281C17.8115234,14.6328125,18,14.9946289,18,15.3916016v0.3554077   c-3.7172852-1.5921631-8.2827148-1.5921631-12,0v-0.3583374C6,15,6.1933594,14.6386719,6.5166016,14.4228516z" fill="#F3F3F3"/><path d="M12.0078125,17C9.703125,17,7.7724609,17.1972656,6,18.1230469v-1.2924805   c3.6612549-1.7199707,8.3387451-1.7199707,12,0v1.2768555C16.0615234,17.0932617,13.9072266,17,12.0078125,17z" fill="#F3F3F3"/><path d="M7,14.1496582c-0.1605835,0.0924683-0.328186,0.1697998-0.4833984,0.2731934   C6.1933594,14.6386719,6,15,6,15.3886719v0.3583374c0.3248291-0.1391602,0.6633301-0.2504272,1-0.3652344V14.1496582z" fill="#FFFFFF" opacity="0.2"/><path d="M17.4970703,14.4238281C17.3374634,14.3179932,17.1652832,14.2385864,17,14.144165v1.2376099   c0.3366699,0.1148071,0.6751709,0.2260742,1,0.3652344v-0.3554077C18,14.9946289,17.8115234,14.6328125,17.4970703,14.4238281z" fill="#010101" opacity="0.1"/><path d="M7,17.6893311v-1.2571411c-0.3374634,0.125-0.6769409,0.246582-1,0.3983765v1.2924805   c0.3266602-0.1705933,0.6610107-0.3091431,0.9997559-0.4335938L7,17.6893311z" fill="#FFFFFF" opacity="0.2"/><path d="M17,17.6765747c0.3375244,0.1227417,0.6725464,0.2595215,1,0.4308472v-1.2768555   c-0.3230591-0.1517944-0.6625366-0.2733765-1-0.3983765V17.6765747z" fill="#010101" opacity="0.1"/><linearGradient gradientUnits="userSpaceOnUse" id="SVGID_1_" x1="1.1248534" x2="22.8751469" y1="6.9288359" y2="17.0711651"><stop offset="0" style="stop-color:#FFFFFF;stop-opacity:0.2"/><stop offset="1" style="stop-color:#FFFFFF;stop-opacity:0"/></linearGradient><path d="M12,0C5.3828125,0,0,5.3833008,0,12s5.3828125,12,12,12s12-5.3833008,12-12S18.6171875,0,12,0z" fill="url(#SVGID_1_)"/></g><g/><g/><g/><g/><g/><g/><g/><g/><g/><g/><g/><g/><g/><g/><g/></svg>