<?xml version="1.0" ?><svg enable-background="new 0 0 24 24" id="Layer_1" version="1.1" viewBox="0 0 24 24" xml:space="preserve" xmlns="http://www.w3.org/2000/svg" xmlns:xlink="http://www.w3.org/1999/xlink"><g><path d="M12,0C5.3833008,0,0,5.3833008,0,12s5.3833008,12,12,12s12-5.3833008,12-12S18.6166992,0,12,0z" fill="#303C42"/><path d="M12,23C5.9345703,23,1,18.0654297,1,12S5.9345703,1,12,1s11,4.9345703,11,11S18.0654297,23,12,23z" fill="#FED600"/><path d="M19.2507324,3.7492676C20.9562378,5.687561,22,8.2213745,22,11   c0,6.0654297-4.9345703,11-11,11c-2.7786255,0-5.312439-1.0437622-7.2507324-2.7492676C5.7666626,21.543457,8.7131958,23,12,23   c6.0654297,0,11-4.9345703,11-11C23,8.7131958,21.543457,5.7666626,19.2507324,3.7492676z" fill="#010101" opacity="0.1"/><path d="M12,13c-3.3642578,0-6,1.7568359-6,4s2.6357422,4,6,4s6-1.7568359,6-4S15.3642578,13,12,13z" fill="#303C42"/><path d="M9.2597656,19.4903564C9.6862793,19.15271,10.0751343,19,10.5,19   c0.4267578,0,0.8686523,0.2358398,1.2490234,0.456543c0.1552734,0.0908203,0.3466797,0.0908203,0.5019531,0   C12.6313477,19.2358398,13.0732422,19,13.5,19c0.4371338,0,0.8322754,0.1592407,1.2462158,0.4884033   C13.9519043,19.8093872,13.0056763,20,12,20C10.9967041,20,10.0529175,19.8099976,9.2597656,19.4903564z" fill="#E53A35"/><path d="M15.6880493,18.9855347C15.1724854,18.496521,14.4730225,18,13.5,18   c-0.5644531,0-1.0634766,0.2133789-1.5,0.4501953C11.5634766,18.2133789,11.0644531,18,10.5,18   c-0.9450684,0-1.6400146,0.4782104-2.1845703,0.9880371C7.510498,18.4533081,7,17.7575073,7,17c0-1.6259766,2.2895508-3,5-3   s5,1.3740234,5,3C17,17.7564087,16.4908447,18.4511719,15.6880493,18.9855347z" fill="#B72025"/><path d="M7.7559814,17.7559814c0-1.6259766,2.2895508-3,5-3   c1.5532837,0,2.9514771,0.4595947,3.8766479,1.1509399C15.8861084,14.803772,14.0701904,14,12,14c-2.7104492,0-5,1.3740234-5,3   c0,0.6850586,0.4316406,1.3130493,1.1068726,1.8236694C7.8826904,18.4908447,7.7559814,18.1311646,7.7559814,17.7559814z" fill="#010101" opacity="0.1"/><path d="M9.1464844,10.8535156C9.2441406,10.9511719,9.3720703,11,9.5,11s0.2558594-0.0488281,0.3535156-0.1464844   c0.1953125-0.1953125,0.1953125-0.5117188,0-0.7070313L8.2070313,8.5l1.6464844-1.6464844   c0.1953125-0.1953125,0.1953125-0.5117188,0-0.7070313s-0.5117188-0.1953125-0.7070313,0L7.5,7.7929688L5.8535156,6.1464844   c-0.1953125-0.1953125-0.5117188-0.1953125-0.7070313,0s-0.1953125,0.5117188,0,0.7070313L6.7929688,8.5l-1.6464844,1.6464844   c-0.1953125,0.1953125-0.1953125,0.5117188,0,0.7070313C5.2441406,10.9511719,5.3720703,11,5.5,11   s0.2558594-0.0488281,0.3535156-0.1464844L7.5,9.2070313L9.1464844,10.8535156z" fill="#303C42"/><path d="M18.8535156,6.1464844c-0.1953125-0.1953125-0.5117188-0.1953125-0.7070313,0L16.5,7.7929688   l-1.6464844-1.6464844c-0.1953125-0.1953125-0.5117188-0.1953125-0.7070313,0s-0.1953125,0.5117188,0,0.7070313L15.7929688,8.5   l-1.6464844,1.6464844c-0.1953125,0.1953125-0.1953125,0.5117188,0,0.7070313C14.2441406,10.9511719,14.3720703,11,14.5,11   s0.2558594-0.0488281,0.3535156-0.1464844L16.5,9.2070313l1.6464844,1.6464844C18.2441406,10.9511719,18.3720703,11,18.5,11   s0.2558594-0.0488281,0.3535156-0.1464844c0.1953125-0.1953125,0.1953125-0.5117188,0-0.7070313L17.2070313,8.5   l1.6464844-1.6464844C19.0488281,6.6582031,19.0488281,6.3417969,18.8535156,6.1464844z" fill="#303C42"/><linearGradient gradientUnits="userSpaceOnUse" id="SVGID_1_" x1="1.1249185" x2="22.875082" y1="6.9288664" y2="17.0711346"><stop offset="0" style="stop-color:#FFFFFF;stop-opacity:0.2"/><stop offset="1" style="stop-color:#FFFFFF;stop-opacity:0"/></linearGradient><path d="M12,0C5.3833008,0,0,5.3833008,0,12s5.3833008,12,12,12s12-5.3833008,12-12S18.6166992,0,12,0z" fill="url(#SVGID_1_)"/></g><g/><g/><g/><g/><g/><g/><g/><g/><g/><g/><g/><g/><g/><g/><g/></svg>