<?xml version="1.0" ?><svg enable-background="new 0 0 24 24" id="Layer_1" version="1.1" viewBox="0 0 24 24" xml:space="preserve" xmlns="http://www.w3.org/2000/svg" xmlns:xlink="http://www.w3.org/1999/xlink"><g><path d="M12,0C5.3828125,0,0,5.3828125,0,12s5.3828125,12,12,12s12-5.3828125,12-12S18.6171875,0,12,0z" fill="#303C42"/><path d="M12,23C5.9345703,23,1,18.0654297,1,12S5.9345703,1,12,1s11,4.9345703,11,11S18.0654297,23,12,23z" fill="#FED600"/><path d="M19.2944336,3.7890625c1.7284546,1.9436646,2.7884521,4.4942627,2.7884521,7.2937622   c0,6.0654297-4.9345703,11-11,11c-2.7998657,0-5.350647-1.0602417-7.2944336-2.7890625C5.8048096,21.5612793,8.7340698,23,12,23   c6.0654297,0,11-4.9345703,11-11C23,8.734436,21.5615234,5.8054199,19.2944336,3.7890625z" fill="#010101" opacity="0.1"/><circle cx="8" cy="9" fill="#303C42" r="1"/><circle cx="16" cy="9" fill="#303C42" r="2"/><circle cx="16" cy="9" fill="#BDDDF4" r="1"/><path d="M16.4083252,8.0916748C16.4649658,8.21698,16.5,8.3536987,16.5,8.5   c0,0.5517578-0.4482422,1-1,1c-0.1463013,0-0.28302-0.0350342-0.4083252-0.0916748C15.2485352,9.7556152,15.5945435,10,16,10   c0.5517578,0,1-0.4482422,1-1C17,8.5945435,16.7556152,8.2485352,16.4083252,8.0916748z" fill="#010101" opacity="0.1"/><path d="M17,14.0175781c0.0048828-0.1386719-0.0478516-0.2734375-0.1464844-0.3710938l-1.5-1.5   c-0.1865234-0.1875-0.484375-0.1962891-0.6806641-0.0244141l-2.6727905,2.3164673l-2.6729126-2.3164673   c-0.1962891-0.1708984-0.4941406-0.1621094-0.6806641,0.0244141l-1.5,1.5C7.0478516,13.7441406,6.9951172,13.8789063,7,14.0175781   s0.0673828,0.2695313,0.1728516,0.3603516l2.4486694,2.1219482l-2.4486694,2.1221924   C7.0673828,18.7128906,7.0048828,18.84375,7,18.9824219s0.0478516,0.2734375,0.1464844,0.3710938l1.5,1.5   C8.7441406,20.9511719,8.8720703,21,9,21c0.1162109,0,0.2333984-0.0400391,0.3271484-0.1220703l2.6727905-2.3164063   l2.6729126,2.3164063C14.7666016,20.9599609,14.8837891,21,15,21c0.1279297,0,0.2558594-0.0488281,0.3535156-0.1464844l1.5-1.5   C16.9521484,19.2558594,17.0048828,19.1210938,17,18.9824219s-0.0673828-0.2695313-0.1728516-0.3603516l-2.4486694-2.1219482   l2.4486694-2.1221924C16.9326172,14.2871094,16.9951172,14.15625,17,14.0175781z" fill="#303C42"/><polygon fill="#5C6771" points="8.2333984,13.9736328 9.0244141,13.1826172 11.2368164,15.0999756 10.3847656,15.8383789  "/><polygon fill="#5C6771" points="15.7666016,19.0263672 14.9755859,19.8173828 12.7631836,17.9000244 13.6152344,17.1616211  "/><polygon fill="#010101" opacity="0.1" points="8.2333984,13.9736328 9.0244141,13.1826172 11.2368164,15.0999756    10.3847656,15.8383789  "/><polygon fill="#010101" opacity="0.1" points="15.7666016,19.0263672 14.9755859,19.8173828 12.7631836,17.9000244    13.6152344,17.1616211  "/><polygon fill="#5C6771" points="9.0244141,19.8173828 8.2333984,19.0263672 14.9755859,13.1826172 15.7666016,13.9736328  "/><polygon fill="#010101" opacity="0.1" points="15.4746094,13.6816406 8.7324219,19.5253906 9.0244141,19.8173828    15.7666016,13.9736328  "/><linearGradient gradientUnits="userSpaceOnUse" id="SVGID_1_" x1="1.1247724" x2="22.875227" y1="6.9287982" y2="17.0712013"><stop offset="0" style="stop-color:#FFFFFF;stop-opacity:0.2"/><stop offset="1" style="stop-color:#FFFFFF;stop-opacity:0"/></linearGradient><path d="M12,0C5.3828125,0,0,5.3828125,0,12s5.3828125,12,12,12s12-5.3828125,12-12S18.6171875,0,12,0z" fill="url(#SVGID_1_)"/></g><g/><g/><g/><g/><g/><g/><g/><g/><g/><g/><g/><g/><g/><g/><g/></svg>