<?xml version="1.0" ?><svg enable-background="new 0 0 24 24" id="Layer_1" version="1.1" viewBox="0 0 24 24" xml:space="preserve" xmlns="http://www.w3.org/2000/svg" xmlns:xlink="http://www.w3.org/1999/xlink"><g><path d="M12,0C5.3828125,0,0,5.3833008,0,12s5.3828125,12,12,12s12-5.3833008,12-12S18.6171875,0,12,0z" fill="#303C42"/><path d="M12,23C5.9345703,23,1,18.0654297,1,12S5.9345703,1,12,1s11,4.9345703,11,11S18.0654297,23,12,23z" fill="#FED600"/><path d="M19.119751,3.630249C20.7561646,5.5509644,21.75,8.0349121,21.75,10.75   c0,6.0654297-4.9345703,11-11,11c-2.7150879,0-5.1990356-0.9938354-7.119751-2.630249C5.6494751,21.4898682,8.6496582,23,12,23   c6.0654297,0,11-4.9345703,11-11C23,8.6496582,21.4898682,5.6494751,19.119751,3.630249z" fill="#010101" opacity="0.1"/><circle cx="8" cy="10" fill="#303C42" r="1"/><path d="M13.5009766,18h-3.0019531c-0.2763672,0-0.5,0.2236328-0.5,0.5s0.2236328,0.5,0.5,0.5h3.0019531   c0.2763672,0,0.5-0.2236328,0.5-0.5S13.7773438,18,13.5009766,18z" fill="#303C42"/><path d="M10.5009766,9c0.0400391,0,0.0810547-0.0048828,0.1210938-0.0151367   c0.2685547-0.0668945,0.4306641-0.3383789,0.3642578-0.605957C10.7802734,7.5561523,9.8916016,6,8.0009766,6   S5.2216797,7.5561523,5.015625,8.3789063C4.9492188,8.6455078,5.1113281,8.9150391,5.3779297,8.9833984   c0.2646484,0.0664063,0.5380859-0.0932617,0.6074219-0.3598633C6.0029297,8.5571289,6.4257813,7,8.0009766,7   s1.9980469,1.5571289,2.0146484,1.6210938C10.0722656,8.8486328,10.2763672,9,10.5009766,9z" fill="#303C42"/><circle cx="16" cy="10" fill="#303C42" r="1"/><path d="M16.0009766,6c-1.890625,0-2.7792969,1.5561523-2.9853516,2.3789063   c-0.0664063,0.2666016,0.0957031,0.5361328,0.3623047,0.6044922c0.2626953,0.0664063,0.5380859-0.0932617,0.6074219-0.3598633   C14.0029297,8.5571289,14.4257813,7,16.0009766,7s1.9980469,1.5571289,2.0146484,1.6210938   C18.0722656,8.8486328,18.2763672,9,18.5009766,9c0.0400391,0,0.0810547-0.0048828,0.1210938-0.0151367   c0.2685547-0.0668945,0.4306641-0.3383789,0.3642578-0.605957C18.7802734,7.5561523,17.8916016,6,16.0009766,6z" fill="#303C42"/><linearGradient gradientUnits="userSpaceOnUse" id="SVGID_1_" x1="1.1248534" x2="22.8751469" y1="6.9288359" y2="17.0711651"><stop offset="0" style="stop-color:#FFFFFF;stop-opacity:0.2"/><stop offset="1" style="stop-color:#FFFFFF;stop-opacity:0"/></linearGradient><path d="M12,0C5.3828125,0,0,5.3833008,0,12s5.3828125,12,12,12s12-5.3833008,12-12S18.6171875,0,12,0z" fill="url(#SVGID_1_)"/></g><g/><g/><g/><g/><g/><g/><g/><g/><g/><g/><g/><g/><g/><g/><g/></svg>