<?xml version="1.0" ?><svg enable-background="new 0 0 24 24" id="Layer_1" version="1.1" viewBox="0 0 24 24" xml:space="preserve" xmlns="http://www.w3.org/2000/svg" xmlns:xlink="http://www.w3.org/1999/xlink"><g><path d="M12,0C5.3833008,0,0,5.3833008,0,12s5.3833008,12,12,12s12-5.3833008,12-12S18.6166992,0,12,0z" fill="#303C42"/><path d="M12,23C5.9345703,23,1,18.0654297,1,12S5.9345703,1,12,1s11,4.9345703,11,11S18.0654297,23,12,23z" fill="#FED600"/><path d="M18.9884033,3.5115967C20.5567017,5.413147,21.5,7.8484497,21.5,10.5   c0,6.0654297-4.9345703,11-11,11c-2.6515503,0-5.086853-0.9432983-6.9884033-2.5115967C5.5307617,21.4366455,8.5861206,23,12,23   c6.0654297,0,11-4.9345703,11-11C23,8.5861206,21.4366455,5.5307617,18.9884033,3.5115967z" fill="#010101" opacity="0.1"/><path d="M18.5,15h-13c-0.152832,0-0.2973633,0.0698242-0.3920898,0.1899414   c-0.0947266,0.1196289-0.1298828,0.2763672-0.0947266,0.4248047C5.7504883,18.7353516,8.6889648,21,12,21   c3.3076172,0,6.2460938-2.2646484,6.9863281-5.3842773c0.0356445-0.1489258,0.0009766-0.3056641-0.0942383-0.4257813   C18.7973633,15.0698242,18.652832,15,18.5,15z" fill="#303C42"/><path d="M9.2471313,19.3469849c0.7454834-0.4313965,1.6917114-0.4700317,2.5014038,0.0011597   c0.1552734,0.0908203,0.3476563,0.0908203,0.5029297,0c0.8112183-0.4712524,1.7567139-0.4326782,2.5011597-0.0018921   C13.9087524,19.7637939,12.9674072,20,12,20C11.0321655,20,10.0908203,19.763916,9.2471313,19.3469849z" fill="#E53A35"/><path d="M15.6813354,18.7740479C14.6580811,17.9588013,13.2225342,17.7576294,12,18.3496094   c-1.2196045-0.59198-2.6582031-0.3904419-3.6818848,0.4257813C7.3485718,18.0717163,6.5790405,17.112915,6.1713867,16H17.828125   C17.4195557,17.1122437,16.6500244,18.0704956,15.6813354,18.7740479z" fill="#B72025"/><path d="M8.3088989,18.7676392c-0.0915337-0.1115837-0.1927242-0.23633-0.29772-0.3689327   c-0.5185409-0.6548786-0.0514708-1.6221066,0.7838449-1.6221046l8.6740313,0.0000095   C17.607605,16.5273438,17.7294312,16.2686768,17.828125,16H6.1713867   C6.5776978,17.1091919,7.3439331,18.0646362,8.3088989,18.7676392z" fill="#010101" opacity="0.1"/><circle cx="8" cy="9" fill="#303C42" r="1"/><circle cx="16" cy="9" fill="#303C42" r="1"/><path d="M19.1133289,3.5115967C20.6816273,5.413147,21.6249256,7.8484497,21.6249256,10.5   c0,6.0654297-4.9345703,11-11,11c-2.6515503,0-5.086853-0.9432983-6.9884033-2.5115967   C5.6556873,21.4366455,8.7110462,23,12.1249256,23c6.0654297,0,11-4.9345703,11-11   C23.1249256,8.5861206,21.5615711,5.5307617,19.1133289,3.5115967z" fill="#010101" opacity="0.1"/><linearGradient gradientUnits="userSpaceOnUse" id="SVGID_1_" x1="1.1249185" x2="22.875082" y1="6.9288664" y2="17.0711346"><stop offset="0" style="stop-color:#FFFFFF;stop-opacity:0.2"/><stop offset="1" style="stop-color:#FFFFFF;stop-opacity:0"/></linearGradient><path d="M12,0C5.3833008,0,0,5.3833008,0,12s5.3833008,12,12,12s12-5.3833008,12-12S18.6166992,0,12,0z" fill="url(#SVGID_1_)"/></g><g/><g/><g/><g/><g/><g/><g/><g/><g/><g/><g/><g/><g/><g/><g/></svg>