<?xml version="1.0" ?><svg enable-background="new 0 0 24 24" id="Layer_1" version="1.1" viewBox="0 0 24 24" xml:space="preserve" xmlns="http://www.w3.org/2000/svg" xmlns:xlink="http://www.w3.org/1999/xlink"><g><path d="M12,0C5.3828125,0,0,5.3828125,0,12s5.3828125,12,12,12s12-5.3828125,12-12S18.6171875,0,12,0z" fill="#303C42"/><path d="M12,23C5.9345703,23,1,18.0654297,1,12S5.9345703,1,12,1s11,4.9345703,11,11S18.0654297,23,12,23z" fill="#FED600"/><path d="M19.119751,3.630249C20.7561646,5.5509644,21.75,8.0349121,21.75,10.75   c0,6.0654297-4.9345703,11-11,11c-2.7150879,0-5.1990356-0.9938354-7.119751-2.630249C5.6494751,21.4898682,8.6496582,23,12,23   c6.0654297,0,11-4.9345703,11-11C23,8.6496582,21.4898682,5.6494751,19.119751,3.630249z" fill="#010101" opacity="0.1"/><path d="M13.8330078,16C13.0957031,16,12,16.5322266,12,18s1.0957031,2,1.8330078,2   C14.4765625,20,15,19.5068359,15,18.9003906v-1.8007813C15,16.4931641,14.4765625,16,13.8330078,16z" fill="#303C42"/><path d="M14,18.9003906C14,18.9404297,13.9335938,19,13.8388672,19C13.6416016,18.9951172,13,18.9101563,13,18   s0.6416016-0.9951172,0.8330078-1C13.9335938,17,14,17.0595703,14,17.0996094V18.9003906z" fill="#B72025"/><circle cx="16" cy="9" fill="#303C42" r="1"/><circle cx="8" cy="9" fill="#303C42" r="1"/><path d="M21.8535156,10.1464844l-1-1c-0.1425781-0.1425781-0.3583984-0.1835938-0.5449219-0.1083984   C20.1220703,9.1152344,20,9.2978516,20,9.5V12c-0.5517578,0-1,0.4482422-1,1s0.4482422,1,1,1   c0.482605,0,0.8670654-0.3498535,0.9605713-0.8050537C20.9859619,13.1350098,21,13.0692139,21,13v-2.2929688l0.1464844,0.1464844   c0.1953125,0.1953125,0.5117188,0.1953125,0.7070313,0S22.0488281,10.3417969,21.8535156,10.1464844z" fill="#303C42"/><path d="M17.5,13c-0.2763672,0-0.5,0.2236328-0.5,0.5V16c-0.5517578,0-1,0.4482422-1,1s0.4482422,1,1,1   c0.482605,0,0.8670654-0.3498535,0.9605713-0.8050537C17.9859619,17.1350098,18,17.0692139,18,17v-3.5   C18,13.2236328,17.7763672,13,17.5,13z" fill="#303C42"/><linearGradient gradientUnits="userSpaceOnUse" id="SVGID_1_" x1="1.1247724" x2="22.875227" y1="6.9287982" y2="17.0712013"><stop offset="0" style="stop-color:#FFFFFF;stop-opacity:0.2"/><stop offset="1" style="stop-color:#FFFFFF;stop-opacity:0"/></linearGradient><path d="M12,0C5.3828125,0,0,5.3828125,0,12s5.3828125,12,12,12s12-5.3828125,12-12S18.6171875,0,12,0z" fill="url(#SVGID_1_)"/></g><g/><g/><g/><g/><g/><g/><g/><g/><g/><g/><g/><g/><g/><g/><g/></svg>