<?xml version="1.0" ?><svg enable-background="new 0 0 24 24" id="Layer_1" version="1.1" viewBox="0 0 24 24" xml:space="preserve" xmlns="http://www.w3.org/2000/svg" xmlns:xlink="http://www.w3.org/1999/xlink"><g><path d="M20.0985718,20.8317871C22.5758057,18.5588989,24,15.3775024,24,12c0-6.6166992-5.3828125-12-12-12   S0,5.3833008,0,12c0,3.3825684,1.4276733,6.5679321,3.9005127,8.8317261C3.3545532,21.1247559,3,21.6763306,3,22.3076172   C3,23.2407227,3.7587891,24,4.6923828,24h4.6152344c0.2589111,0,0.5015869-0.0631104,0.7211304-0.1673584   C10.6749878,23.9396973,11.3366699,24,12,24c0.6602783,0,1.3217773-0.0603027,1.9715576-0.1672363   C14.19104,23.9369507,14.4335938,24,14.6923828,24h4.6152344C20.2412109,24,21,23.2407227,21,22.3076172   C21,21.6768799,20.645874,21.1257324,20.0985718,20.8317871z" fill="#303C42"/><path d="M1,12C1,5.9345703,5.9345703,1,12,1s11,4.9345703,11,11   c0,3.1767578-1.3696899,6.1677246-3.7658081,8.2717896C18.7816772,19.8497314,18.5,19.2650146,18.5,18.6176758v-0.3818359   C20.1091919,16.6500854,21,14.6246338,21,12.5c0-0.2763672-0.2236328-0.5-0.5-0.5h-2V8h1C19.7763672,8,20,7.7763672,20,7.5   S19.7763672,7,19.5,7h-5C14.2236328,7,14,7.2236328,14,7.5S14.2236328,8,14.5,8h1v4h-7V8h1C9.7763672,8,10,7.7763672,10,7.5   S9.7763672,7,9.5,7h-5C4.2236328,7,4,7.2236328,4,7.5S4.2236328,8,4.5,8h1v4h-2C3.2236328,12,3,12.2236328,3,12.5   c0,2.125,0.890564,4.1506958,2.5,5.7367554v0.3809204c0,0.6473389-0.2817993,1.2321167-0.7352295,1.65448   C2.3738403,18.1792603,1,15.1824951,1,12z" fill="#FED600"/><path d="M18.5,13h1.4814453C19.8793945,14.3425903,19.364624,15.6276245,18.5,16.7404785V13z" fill="#B72025"/><path d="M8.574646,19.1156616C8.538208,18.9528809,8.5,18.789978,8.5,18.6176758V13h7v5.6176758   c0,0.1723022-0.038208,0.3352051-0.074646,0.4979858C13.0831909,20.2926636,10.9168091,20.2926636,8.574646,19.1156616z" fill="#B72025"/><path d="M5.5,16.741394C4.635376,15.628418,4.1206665,14.3428345,4.0185547,13H5.5V16.741394z" fill="#B72025"/><path d="M19.8290405,13.9907227C19.9047241,13.6652222,19.9560547,13.3344116,19.9814453,13H18.5   v0.9907227H19.8290405z" fill="#010101" opacity="0.1"/><rect fill="#010101" height="0.9907227" opacity="0.1" width="7" x="8.5" y="13"/><path d="M5.5,13.9907227V13H4.0185547C4.1206665,14.3428345,4.635376,15.628418,5.5,16.741394   v-0.7194824c-0.2675781-0.6513672-0.4376221-1.3326416-0.4907227-2.031189H5.5z" fill="#010101" opacity="0.1"/><path d="M9.3076172,23H4.6923828C4.3105469,23,4,22.6894531,4,22.3076172   c0-0.284668,0.1708984-0.5375977,0.4384766-0.644043C5.6914063,21.1621094,6.5,19.9663086,6.5,18.6176758V8h1v10.6176758   c0,1.3486328,0.8085938,2.5444336,2.0644531,3.046875C9.8291016,21.7700195,10,22.0229492,10,22.3076172   C10,22.6894531,9.6894531,23,9.3076172,23z" fill="#38A4DD"/><path d="M9.5644531,21.6645508c-0.2058105-0.0823364-0.3944702-0.1893311-0.574646-0.3065186   C8.9625854,21.7151489,8.6715698,22,8.3076172,22H4.079834C4.0324707,22.0943604,4,22.1968384,4,22.3076172   C4,22.6894531,4.3105469,23,4.6923828,23h4.6152344C9.6894531,23,10,22.6894531,10,22.3076172   C10,22.0229492,9.8291016,21.7700195,9.5644531,21.6645508z" fill="#010101" opacity="0.1"/><path d="M10.8757324,22.9371948C10.9543457,22.7421875,11,22.5304565,11,22.3076172   c0-0.6962891-0.4179688-1.3129883-1.0673828-1.5727539c-0.0234375-0.0093994-0.0406494-0.0272217-0.0636597-0.0372925   C10.5802002,20.8964233,11.2872314,21,12,21c0.711853,0,1.4179688-0.1031494,2.1282959-0.3015137   c-0.0230713,0.0101318-0.0403442,0.0279541-0.0638428,0.0373535C13.4179688,20.9946289,13,21.6113281,13,22.3076172   c0,0.2226563,0.0457153,0.4343262,0.1242065,0.6292725C12.3766479,23.0119019,11.6201172,23.012085,10.8757324,22.9371948z" fill="#FED600"/><path d="M19.3076172,23h-4.6152344C14.3105469,23,14,22.6894531,14,22.3076172   c0-0.284668,0.1708984-0.5375977,0.4384766-0.644043C15.6914063,21.1621094,16.5,19.9663086,16.5,18.6176758V8h1v10.6176758   c0,1.3486328,0.8085938,2.5444336,2.0644531,3.046875C19.8291016,21.7700195,20,22.0229492,20,22.3076172   C20,22.6894531,19.6894531,23,19.3076172,23z" fill="#38A4DD"/><path d="M13,22.3076172c0-0.4908447,0.2158813-0.9349365,0.5649414-1.2492065   c-0.8899536,0.2579956-1.8258667,0.4041748-2.7932739,0.4278564C10.9102173,21.7333984,11,22.0095825,11,22.3076172   c0,0.2224731-0.0455933,0.4338379-0.1239624,0.628479c0.0518799,0.0053101,0.1054077,0.0044556,0.1574707,0.0089722   c0.6936035,0.0598755,1.3956299,0.0615845,2.0906982-0.0081787C13.0457153,22.7419434,13,22.5302734,13,22.3076172z" fill="#010101" opacity="0.1"/><g><path d="M22.8684692,10.3892212c-0.036438-0.2478027-0.0742188-0.4952393-0.1268921-0.7373657    c-0.036499-0.1671143-0.083374-0.3302002-0.1274414-0.4944458c-0.0548706-0.2051392-0.111084-0.4095459-0.1773071-0.6098022    c-0.0585938-0.1765747-0.1243382-0.3496704-0.1915283-0.5222168c-0.0690308-0.1777344-0.1412354-0.3536987-0.2190552-0.5267334    c-0.0809326-0.1796265-0.1660767-0.3568115-0.2562256-0.5311279c-0.0801392-0.1552124-0.1652832-0.3071899-0.2525024-0.4579468    c-0.1032715-0.1782227-0.2078857-0.3555298-0.3206787-0.5272827c-0.0881958-0.1345215-0.1831055-0.263855-0.2769165-0.394104    c-0.1262817-0.1751709-0.25177-0.3509521-0.3878174-0.5181885c-0.0900879-0.1108398-0.1880493-0.2145996-0.2823486-0.3217773    c-0.15271-0.1734619-0.3029785-0.3492432-0.4661865-0.5128174C19.7270508,4.178833,19.6646729,4.12854,19.6069336,4.0731201    c-0.1951294-0.1873779-0.3919067-0.3731079-0.6004028-0.5458374C20.5640259,5.4252319,21.5,7.8530884,21.5,10.5    c0,1.4785767-0.2962036,2.8867188-0.8252563,4.1746216C20.2834473,15.9847412,19.546936,17.2041626,18.5,18.2358398v0.3818359    c0,0.6473389,0.2816772,1.2320557,0.7341919,1.6541138c0.2973633-0.2611084,0.5784912-0.5361938,0.8435669-0.8232422    c0.0044556-0.0048828,0.0088501-0.0098267,0.0133667-0.0147095c0.2554932-0.2776489,0.4944458-0.5674438,0.7186279-0.8668213    c0.0140991-0.0188599,0.0282593-0.0375366,0.0422363-0.0565186c0.2111206-0.2857666,0.40625-0.581604,0.5880127-0.8847656    c0.0194092-0.0324707,0.039856-0.0643311,0.0588989-0.0969849c0.1713257-0.2925415,0.3262939-0.5935669,0.4694824-0.9000244    c0.0205078-0.0441284,0.043335-0.0869141,0.0632935-0.1314087c0.1346436-0.2984009,0.2520142-0.604248,0.359375-0.9137573    c0.0188599-0.0546875,0.0415039-0.1074829,0.0595093-0.1625366c0.0994873-0.3021851,0.1802979-0.6107178,0.2532349-0.9215088    c0.0151367-0.0650024,0.0357056-0.1278076,0.0496826-0.1932373c0.0664673-0.3088989,0.1130371-0.6231689,0.1526489-0.9387207    c0.0085449-0.0689697,0.0241089-0.1357422,0.0313625-0.2050781C22.9783325,12.7786255,23,12.3908081,23,12    c0-0.4042358-0.0253906-0.8023682-0.0679321-1.1953125C22.9168091,10.6643066,22.888916,10.5279541,22.8684692,10.3892212z" fill="#010101" opacity="0.1"/><path d="M4.0018921,19.5294189c0.2163696,0.2294312,0.4432373,0.4505615,0.680603,0.6626587    c0.0285034,0.0254517,0.0574341,0.050415,0.0862427,0.0756226c0.0812378-0.0761108,0.1503906-0.1624146,0.2199707-0.2483521    c-0.491333-0.2850952-0.9570923-0.6085205-1.3964233-0.9636841c0.0808105,0.0959473,0.1559448,0.1959229,0.2401733,0.2893677    C3.8883057,19.4071655,3.9446411,19.4686279,4.0018921,19.5294189z" fill="#010101" opacity="0.1"/></g><path d="M19.5644913,21.6645508c-0.2058105-0.0823364-0.3944702-0.1893311-0.574646-0.3065186   C18.9626236,21.7151489,18.671608,22,18.3076553,22h-4.2277832c-0.0473633,0.0943604-0.079834,0.1968384-0.079834,0.3076172   C14.0000381,22.6894531,14.310585,23,14.692421,23h4.6152344c0.3818359,0,0.6923828-0.3105469,0.6923828-0.6923828   C20.0000381,22.0229492,19.8291397,21.7700195,19.5644913,21.6645508z" fill="#010101" opacity="0.1"/><linearGradient gradientUnits="userSpaceOnUse" id="SVGID_1_" x1="0.6762125" x2="23.0356178" y1="7.8909492" y2="18.3173103"><stop offset="0" style="stop-color:#FFFFFF;stop-opacity:0.2"/><stop offset="1" style="stop-color:#FFFFFF;stop-opacity:0"/></linearGradient><path d="M20.0985718,20.8317871C22.5758057,18.5588989,24,15.3775024,24,12c0-6.6166992-5.3828125-12-12-12   S0,5.3833008,0,12c0,3.3825684,1.4276733,6.5679321,3.9005127,8.8317261C3.3545532,21.1247559,3,21.6763306,3,22.3076172   C3,23.2407227,3.7587891,24,4.6923828,24h4.6152344c0.2589111,0,0.5015869-0.0631104,0.7211304-0.1673584   C10.6749878,23.9396973,11.3366699,24,12,24c0.6602783,0,1.3217773-0.0603027,1.9715576-0.1672363   C14.19104,23.9369507,14.4335938,24,14.6923828,24h4.6152344C20.2412109,24,21,23.2407227,21,22.3076172   C21,21.6768799,20.645874,21.1257324,20.0985718,20.8317871z" fill="url(#SVGID_1_)"/></g><g/><g/><g/><g/><g/><g/><g/><g/><g/><g/><g/><g/><g/><g/><g/></svg>