<?xml version="1.0" ?><svg enable-background="new 0 0 24 24" id="Layer_1" version="1.1" viewBox="0 0 24 24" xml:space="preserve" xmlns="http://www.w3.org/2000/svg" xmlns:xlink="http://www.w3.org/1999/xlink"><g><path d="M12,0C5.3828125,0,0,5.3828125,0,12s5.3828125,12,12,12s12-5.3828125,12-12S18.6171875,0,12,0z" fill="#303C42"/><path d="M12,23C5.9345703,23,1,18.0654297,1,12S5.9345703,1,12,1s11,4.9345703,11,11S18.0654297,23,12,23z" fill="#FED600"/><path d="M19.119751,3.630249C20.7561646,5.5509644,21.75,8.0349121,21.75,10.75   c0,6.0654297-4.9345703,11-11,11c-2.7150879,0-5.1990356-0.9938354-7.119751-2.630249C5.6494751,21.4898682,8.6496582,23,12,23   c6.0654297,0,11-4.9345703,11-11C23,8.6496582,21.4898682,5.6494751,19.119751,3.630249z" fill="#010101" opacity="0.1"/><path d="M18.2763672,7.0527344L16.5,7.9414063l-1.7763672-0.8886719   c-0.2460938-0.1220703-0.546875-0.0234375-0.6708984,0.2236328c-0.1230469,0.2470703-0.0234375,0.546875,0.2236328,0.6708984l2,1   C16.3466797,8.9824219,16.4238281,9,16.5,9s0.1533203-0.0175781,0.2236328-0.0527344l2-1   c0.2470703-0.1240234,0.3466797-0.4238281,0.2236328-0.6708984C18.8232422,7.0292969,18.5244141,6.9296875,18.2763672,7.0527344z" fill="#303C42"/><path d="M7.5,9c0.0761719,0,0.1533203-0.0175781,0.2236328-0.0527344l2-1   c0.2470703-0.1240234,0.3466797-0.4238281,0.2236328-0.6708984C9.8232422,7.0292969,9.5244141,6.9296875,9.2763672,7.0527344   L7.5,7.9414063L5.7236328,7.0527344c-0.2460938-0.1220703-0.546875-0.0234375-0.6708984,0.2236328   c-0.1230469,0.2470703-0.0234375,0.546875,0.2236328,0.6708984l2,1C7.3466797,8.9824219,7.4238281,9,7.5,9z" fill="#303C42"/><path d="M12,15c-0.0009766,0-0.0019531,0-0.0029297,0c-4.1992188,0-5.8300781,2.1103516-5.8974609,2.2001953   c-0.1640625,0.2197266-0.1201172,0.5302734,0.0986328,0.6962891c0.2177734,0.1660156,0.5302734,0.1240234,0.7001953-0.09375   C6.9550781,17.7294922,8.3320313,16,11.9970703,16C11.9980469,16,11.9990234,16,12,16   c3.6669922,0.0009766,5.0449219,1.7294922,5.0996094,1.7998047C17.1982422,17.9306641,17.3486328,18,17.5,18   c0.1044922,0,0.2099609-0.0322266,0.2998047-0.0996094c0.2207031-0.1660156,0.265625-0.4794922,0.1005859-0.7001953   C17.8330078,17.1103516,16.2011719,15.0009766,12,15z" fill="#303C42"/><linearGradient gradientUnits="userSpaceOnUse" id="SVGID_1_" x1="1.1247724" x2="22.875227" y1="6.9287982" y2="17.0712013"><stop offset="0" style="stop-color:#FFFFFF;stop-opacity:0.2"/><stop offset="1" style="stop-color:#FFFFFF;stop-opacity:0"/></linearGradient><path d="M12,0C5.3828125,0,0,5.3828125,0,12s5.3828125,12,12,12s12-5.3828125,12-12S18.6171875,0,12,0z" fill="url(#SVGID_1_)"/></g><g/><g/><g/><g/><g/><g/><g/><g/><g/><g/><g/><g/><g/><g/><g/></svg>