<?xml version="1.0" ?><svg enable-background="new 0 0 24 24" id="Layer_1" version="1.1" viewBox="0 0 24 24" xml:space="preserve" xmlns="http://www.w3.org/2000/svg" xmlns:xlink="http://www.w3.org/1999/xlink"><g><path d="M12,0C5.3833008,0,0,5.3833008,0,12s5.3833008,12,12,12s12-5.3833008,12-12S18.6166992,0,12,0z" fill="#303C42"/><path d="M12,23C5.9345703,23,1,18.0654297,1,12c0-3.8866577,2.0316162-7.3009644,5.0831299-9.2581177   c-0.1190186,0.192749-0.1038208,0.444458,0.0633545,0.6116333l1,1C7.2441406,4.4511719,7.3720703,4.5,7.5,4.5   s0.2558594-0.0488281,0.3535156-0.1464844l1-1c0.1953125-0.1953125,0.1953125-0.5117188,0-0.7070313   s-0.5117188-0.1953125-0.7070313,0L7.5,3.2929688L6.8535156,2.6464844   C6.7485352,2.5415039,6.6091309,2.4976807,6.4718018,2.5054932C8.0984497,1.5545654,9.9836426,1,12,1   c6.0654297,0,11,4.9345703,11,11S18.0654297,23,12,23z" fill="#FED600"/><path d="M19.119751,3.630249C20.7561646,5.5509644,21.75,8.0349121,21.75,10.75   c0,6.0654297-4.9345703,11-11,11c-2.7150879,0-5.1990356-0.9938354-7.119751-2.630249C5.6494751,21.4898682,8.6496582,23,12,23   c6.0654297,0,11-4.9345703,11-11C23,8.6496582,21.4898682,5.6494751,19.119751,3.630249z" fill="#010101" opacity="0.1"/><circle cx="8" cy="11" fill="#303C42" r="1"/><circle cx="16" cy="11" fill="#303C42" r="1"/><path d="M16.5,17c-0.6254883,0-0.9418945,0.4208984-1.1513672,0.699707   C15.1591797,17.9521484,15.1030273,18,14.9970703,18s-0.1621094-0.0478516-0.3515625-0.300293   C14.4360352,17.4208984,14.1196289,17,13.4941406,17s-0.9414063,0.4213867-1.1503906,0.7001953   C12.1542969,17.9521484,12.0986328,18,11.9936523,18c-0.1044922,0-0.159668-0.0473633-0.3481445-0.2998047   C11.4365234,17.4213867,11.1210938,17,10.496582,17c-0.625,0-0.9404297,0.4213867-1.1494141,0.7001953   C9.1577148,17.9521484,9.1025391,18,8.9975586,18c-0.1044922,0-0.1601563-0.0478516-0.3486328-0.2998047   C8.4399414,17.4213867,8.1245117,17,7.5,17C7.2236328,17,7,17.2236328,7,17.5S7.2236328,18,7.5,18   c0.1044922,0,0.159668,0.0473633,0.3481445,0.2993164C8.0571289,18.5786133,8.3725586,19,8.9975586,19   s0.9404297-0.4213867,1.1494141-0.7001953C10.3364258,18.0478516,10.3916016,18,10.496582,18   c0.1044922,0,0.159668,0.0473633,0.3481445,0.2998047C11.0537109,18.5786133,11.3691406,19,11.9936523,19   c0.625,0,0.940918-0.4208984,1.1499023-0.699707C13.3330078,18.0478516,13.3886719,18,13.4941406,18   c0.105957,0,0.1621094,0.0478516,0.3515625,0.300293C14.0551758,18.5791016,14.371582,19,14.9970703,19   s0.9418945-0.4208984,1.1513672-0.699707C16.3378906,18.0478516,16.394043,18,16.5,18c0.2763672,0,0.5-0.2236328,0.5-0.5   S16.7763672,17,16.5,17z" fill="#303C42"/><path d="M8.1464844,8.3535156C8.2441406,8.4511719,8.3720703,8.5,8.5,8.5s0.2558594-0.0488281,0.3535156-0.1464844   c0.1953125-0.1953125,0.1953125-0.5117188,0-0.7070313l-1-1c-0.1953125-0.1953125-0.5117188-0.1953125-0.7070313,0l-1,1   c-0.1953125,0.1953125-0.1953125,0.5117188,0,0.7070313s0.5117188,0.1953125,0.7070313,0L7.5,7.7070313L8.1464844,8.3535156z" fill="#303C42"/><path d="M6.3535156,5.1464844l-1-1c-0.1953125-0.1953125-0.5117188-0.1953125-0.7070313,0   s-0.1953125,0.5117188,0,0.7070313L5.2929688,5.5L4.6464844,6.1464844c-0.1953125,0.1953125-0.1953125,0.5117188,0,0.7070313   C4.7441406,6.9511719,4.8720703,7,5,7s0.2558594-0.0488281,0.3535156-0.1464844l1-1   C6.5488281,5.6582031,6.5488281,5.3417969,6.3535156,5.1464844z" fill="#303C42"/><path d="M9.6464844,6.8535156C9.7441406,6.9511719,9.8720703,7,10,7s0.2558594-0.0488281,0.3535156-0.1464844   c0.1953125-0.1953125,0.1953125-0.5117188,0-0.7070313L9.7070313,5.5l0.6464844-0.6464844   c0.1953125-0.1953125,0.1953125-0.5117188,0-0.7070313s-0.5117188-0.1953125-0.7070313,0l-1,1   c-0.1953125,0.1953125-0.1953125,0.5117188,0,0.7070313L9.6464844,6.8535156z" fill="#303C42"/><linearGradient gradientUnits="userSpaceOnUse" id="SVGID_1_" x1="1.1249185" x2="22.875082" y1="6.9288664" y2="17.0711346"><stop offset="0" style="stop-color:#FFFFFF;stop-opacity:0.2"/><stop offset="1" style="stop-color:#FFFFFF;stop-opacity:0"/></linearGradient><path d="M12,0C5.3833008,0,0,5.3833008,0,12s5.3833008,12,12,12s12-5.3833008,12-12S18.6166992,0,12,0z" fill="url(#SVGID_1_)"/></g><g/><g/><g/><g/><g/><g/><g/><g/><g/><g/><g/><g/><g/><g/><g/></svg>