<?xml version="1.0" ?><svg enable-background="new 0 0 24 24" id="Layer_1" version="1.1" viewBox="0 0 24 24" xml:space="preserve" xmlns="http://www.w3.org/2000/svg" xmlns:xlink="http://www.w3.org/1999/xlink"><g><path d="M12,0C5.3833008,0,0,5.3833008,0,12s5.3833008,12,12,12s12-5.3833008,12-12S18.6166992,0,12,0z" fill="#303C42"/><path d="M12,23C5.9345703,23,1,18.0654297,1,12S5.9345703,1,12,1s11,4.9345703,11,11S18.0654297,23,12,23z" fill="#FED600"/><circle cx="8" cy="9" fill="#303C42" r="1"/><circle cx="16" cy="9" fill="#303C42" r="1"/><path d="M19.5,10c-0.8271484,0-1.5,0.6728516-1.5,1.5c0,0.230896,0.0567627,0.4470825,0.1503296,0.6426392   l-3.3115845,3.3115845C14.0342407,15.1936035,13.0966797,15.0001221,12,15c0,0-0.0004883,0-0.0014648,0   c-3.6640625,0-5.7646484,2.059082-5.8520508,2.1464844c-0.1948242,0.1948242-0.1948242,0.5102539-0.0004883,0.7055664   c0.0976563,0.0981445,0.2260742,0.1469727,0.3544922,0.1469727c0.1269531,0,0.2543945-0.0478516,0.3520508-0.1445313   C6.871582,17.8359375,8.7651367,16,11.9985352,16H12c3.234375,0.0004883,5.1289063,1.8359375,5.1474609,1.8544922   c0.1967773,0.1938477,0.512207,0.1928711,0.706543-0.0024414s0.1943359-0.5107422-0.0004883-0.7055664   c-0.0491333-0.0493774-0.7547607-0.7177124-1.9962158-1.2967529l3.000061-3.000061C19.0529175,12.9432373,19.269104,13,19.5,13   c0.8271484,0,1.5-0.6728516,1.5-1.5S20.3271484,10,19.5,10z" fill="#303C42"/><circle cx="19.5" cy="11.5" fill="#E53A35" r="0.5"/><path d="M19.119751,3.630249C20.7561646,5.5509644,21.75,8.0349121,21.75,10.75   c0,6.0654297-4.9345703,11-11,11c-2.7150879,0-5.1990356-0.9938354-7.119751-2.630249C5.6494751,21.4898682,8.6496582,23,12,23   c6.0654297,0,11-4.9345703,11-11C23,8.6496582,21.4898682,5.6494751,19.119751,3.630249z" fill="#010101" opacity="0.1"/><linearGradient gradientUnits="userSpaceOnUse" id="SVGID_1_" x1="1.1249185" x2="22.875082" y1="6.9288664" y2="17.0711346"><stop offset="0" style="stop-color:#FFFFFF;stop-opacity:0.2"/><stop offset="1" style="stop-color:#FFFFFF;stop-opacity:0"/></linearGradient><path d="M12,0C5.3833008,0,0,5.3833008,0,12s5.3833008,12,12,12s12-5.3833008,12-12S18.6166992,0,12,0z" fill="url(#SVGID_1_)"/></g><g/><g/><g/><g/><g/><g/><g/><g/><g/><g/><g/><g/><g/><g/><g/></svg>