<?xml version="1.0" ?><svg enable-background="new 0 0 24 24" id="Layer_1" version="1.1" viewBox="0 0 24 24" xml:space="preserve" xmlns="http://www.w3.org/2000/svg" xmlns:xlink="http://www.w3.org/1999/xlink"><g><path d="M12,0C5.3828125,0,0,5.3833008,0,12s5.3828125,12,12,12s12-5.3833008,12-12S18.6171875,0,12,0z" fill="#303C42"/><path d="M12,23C5.9345703,23,1,18.0654297,1,12S5.9345703,1,12,1s11,4.9345703,11,11S18.0654297,23,12,23z" fill="#FED600"/><path d="M19.119751,3.630249C20.7561646,5.5509644,21.75,8.0349121,21.75,10.75   c0,6.0654297-4.9345703,11-11,11c-2.7150879,0-5.1990356-0.9938354-7.119751-2.630249C5.6494751,21.4898682,8.6496582,23,12,23   c6.0654297,0,11-4.9345703,11-11C23,8.6496582,21.4898682,5.6494751,19.119751,3.630249z" fill="#010101" opacity="0.1"/><path d="M17.5,8C16.1210938,8,15,9.121582,15,10.5s1.1210938,2.5,2.5,2.5c0.8271484,0,1.5-0.6728516,1.5-1.5   S18.3271484,10,17.5,10c-0.2763672,0-0.5,0.2236328-0.5,0.5s0.2236328,0.5,0.5,0.5c0.2753906,0,0.5,0.2241211,0.5,0.5   S17.7753906,12,17.5,12c-0.8271484,0-1.5-0.6728516-1.5-1.5S16.6728516,9,17.5,9c1.3789063,0,2.5,1.121582,2.5,2.5   S18.8789063,14,17.5,14c-1.9296875,0-3.5-1.5703125-3.5-3.5S15.5703125,7,17.5,7C17.7763672,7,18,6.7763672,18,6.5   S17.7763672,6,17.5,6C15.0185547,6,13,8.0185547,13,10.5s2.0185547,4.5,4.5,4.5c1.9296875,0,3.5-1.5703125,3.5-3.5   S19.4296875,8,17.5,8z" fill="#303C42"/><path d="M11,11.5C11,9.5703125,9.4296875,8,7.5,8C6.1210938,8,5,9.121582,5,10.5S6.1210938,13,7.5,13   C8.3271484,13,9,12.3271484,9,11.5S8.3271484,10,7.5,10C7.2236328,10,7,10.2236328,7,10.5S7.2236328,11,7.5,11   C7.7753906,11,8,11.2241211,8,11.5S7.7753906,12,7.5,12C6.6728516,12,6,11.3271484,6,10.5S6.6728516,9,7.5,9   c1.3789063,0,2.5,1.121582,2.5,2.5S8.8789063,14,7.5,14C5.5703125,14,4,12.4296875,4,10.5S5.5703125,7,7.5,7   C7.7763672,7,8,6.7763672,8,6.5S7.7763672,6,7.5,6C5.0185547,6,3,8.0185547,3,10.5S5.0185547,15,7.5,15   C9.4296875,15,11,13.4296875,11,11.5z" fill="#303C42"/><path d="M14.5,18h-5C9.2236328,18,9,18.2236328,9,18.5S9.2236328,19,9.5,19h5c0.2763672,0,0.5-0.2236328,0.5-0.5   S14.7763672,18,14.5,18z" fill="#303C42"/><linearGradient gradientUnits="userSpaceOnUse" id="SVGID_1_" x1="1.1248534" x2="22.8751469" y1="6.9288359" y2="17.0711651"><stop offset="0" style="stop-color:#FFFFFF;stop-opacity:0.2"/><stop offset="1" style="stop-color:#FFFFFF;stop-opacity:0"/></linearGradient><path d="M12,0C5.3828125,0,0,5.3833008,0,12s5.3828125,12,12,12s12-5.3833008,12-12S18.6171875,0,12,0z" fill="url(#SVGID_1_)"/></g><g/><g/><g/><g/><g/><g/><g/><g/><g/><g/><g/><g/><g/><g/><g/></svg>