<?xml version="1.0" ?><svg enable-background="new 0 0 24 24" id="Layer_1" version="1.1" viewBox="0 0 24 24" xml:space="preserve" xmlns="http://www.w3.org/2000/svg" xmlns:xlink="http://www.w3.org/1999/xlink"><g><path d="M12,0C5.3828125,0,0,5.3833008,0,12s5.3828125,12,12,12s12-5.3833008,12-12S18.6171875,0,12,0z" fill="#303C42"/><path d="M12,23C5.9345703,23,1,18.0654297,1,12S5.9345703,1,12,1s11,4.9345703,11,11S18.0654297,23,12,23z" fill="#FED600"/><path d="M19.2507324,3.7492676C20.9562378,5.687561,22,8.2213745,22,11   c0,6.0654297-4.9345703,11-11,11c-2.7786255,0-5.312439-1.0437622-7.2507324-2.7492676C5.7666626,21.543457,8.7131958,23,12,23   c6.0654297,0,11-4.9345703,11-11C23,8.7131958,21.543457,5.7666626,19.2507324,3.7492676z" fill="#010101" opacity="0.1"/><path d="M11.9980469,13.9985352c-2.8349609,0-5.3720703,1.690918-6.4638672,4.3081055   c-0.1054688,0.2548828,0.0146484,0.5473633,0.2695313,0.6538086c0.2509766,0.1069336,0.5478516-0.0141602,0.6542969-0.269043   c0.9345703-2.2431641,3.109375-3.6928711,5.5400391-3.6928711s4.6064453,1.449707,5.5410156,3.6938477   C17.6191406,18.8842773,17.8056641,19,18.0009766,19c0.0644531,0,0.1298828-0.012207,0.1923828-0.0385742   c0.2548828-0.105957,0.375-0.3989258,0.2695313-0.6538086C17.3710938,15.6899414,14.8339844,13.9985352,11.9980469,13.9985352z" fill="#303C42"/><circle cx="8" cy="9" fill="#303C42" r="1"/><circle cx="16" cy="9" fill="#303C42" r="1"/><path d="M17.0869141,10.2158203C16.7597656,10.6899414,15.9980469,11.8608398,15.9980469,12.5   c0,0.8271484,0.6728516,1.5,1.5,1.5s1.5-0.6728516,1.5-1.5c0-0.6391602-0.7617188-1.8100586-1.0888672-2.2841797   C17.7236328,9.9453125,17.2724609,9.9453125,17.0869141,10.2158203z" fill="#303C42"/><path d="M17.4980469,13c-0.2753906,0-0.5-0.2241211-0.5-0.4995117   c0.0039063-0.152832,0.2119141-0.5883789,0.5-1.0737305c0.2880859,0.484375,0.4951172,0.9199219,0.5,1.0732422   C17.9980469,12.7758789,17.7734375,13,17.4980469,13z" fill="#38A4DD"/><linearGradient gradientUnits="userSpaceOnUse" id="SVGID_1_" x1="1.1248534" x2="22.8751469" y1="6.9288359" y2="17.0711651"><stop offset="0" style="stop-color:#FFFFFF;stop-opacity:0.2"/><stop offset="1" style="stop-color:#FFFFFF;stop-opacity:0"/></linearGradient><path d="M12,0C5.3828125,0,0,5.3833008,0,12s5.3828125,12,12,12s12-5.3833008,12-12S18.6171875,0,12,0z" fill="url(#SVGID_1_)"/></g><g/><g/><g/><g/><g/><g/><g/><g/><g/><g/><g/><g/><g/><g/><g/></svg>