<?xml version="1.0" ?><svg enable-background="new 0 0 24 24" id="Layer_1" version="1.1" viewBox="0 0 24 24" xml:space="preserve" xmlns="http://www.w3.org/2000/svg" xmlns:xlink="http://www.w3.org/1999/xlink"><g><path d="M12,0C5.3828125,0,0,5.3833008,0,12s5.3828125,12,12,12s12-5.3833008,12-12S18.6171875,0,12,0z" fill="#303C42"/><path d="M12,23C5.9345703,23,1,18.0654297,1,12S5.9345703,1,12,1s11,4.9345703,11,11S18.0654297,23,12,23z" fill="#FED600"/><path d="M19.119751,3.630249C20.7561646,5.5509644,21.75,8.0349121,21.75,10.75   c0,6.0654297-4.9345703,11-11,11c-2.7150879,0-5.1990356-0.9938354-7.119751-2.630249C5.6494751,21.4898682,8.6496582,23,12,23   c6.0654297,0,11-4.9345703,11-11C23,8.6496582,21.4898682,5.6494751,19.119751,3.630249z" fill="#010101" opacity="0.1"/><path d="M9.9990234,8.5c0-0.2763672-0.2236328-0.5-0.5-0.5c-1.2050781,0-3.5-1.4946289-3.5-2.5   c0-0.2763672-0.2236328-0.5-0.5-0.5s-0.5,0.2236328-0.5,0.5c0,1.7358398,2.8867188,3.5,4.5,3.5   C9.7753906,9,9.9990234,8.7763672,9.9990234,8.5z" fill="#303C42"/><path d="M18.4990234,5c-0.2763672,0-0.5,0.2236328-0.5,0.5c0,1.0053711-2.2949219,2.5-3.5,2.5   c-0.2763672,0-0.5,0.2236328-0.5,0.5s0.2236328,0.5,0.5,0.5c1.6132813,0,4.5-1.7641602,4.5-3.5   C18.9990234,5.2236328,18.7753906,5,18.4990234,5z" fill="#303C42"/><circle cx="7.9990234" cy="10" fill="#303C42" r="1"/><circle cx="15.9990234" cy="10" fill="#303C42" r="1"/><path d="M12,15h-0.0009766c-4.2011719,0-5.8320313,2.1103516-5.8994141,2.2001953   c-0.1640625,0.2197266-0.1201172,0.5297852,0.0986328,0.6962891c0.2177734,0.1660156,0.53125,0.1235352,0.6992188-0.09375   C6.9550781,17.7290039,8.3320313,16,11.9980469,16C11.9990234,16,11.9990234,16,12,16   c3.6669922,0.0004883,5.0449219,1.7294922,5.0996094,1.800293C17.1982422,17.9311523,17.3486328,18,17.5,18   c0.1044922,0,0.2099609-0.0327148,0.2998047-0.1000977c0.2207031-0.1655273,0.265625-0.4790039,0.1005859-0.7001953   C17.8330078,17.1103516,16.2021484,15.0004883,12,15z" fill="#303C42"/><linearGradient gradientUnits="userSpaceOnUse" id="SVGID_1_" x1="1.1248534" x2="22.8751469" y1="6.9288359" y2="17.0711651"><stop offset="0" style="stop-color:#FFFFFF;stop-opacity:0.2"/><stop offset="1" style="stop-color:#FFFFFF;stop-opacity:0"/></linearGradient><path d="M12,0C5.3828125,0,0,5.3833008,0,12s5.3828125,12,12,12s12-5.3833008,12-12S18.6171875,0,12,0z" fill="url(#SVGID_1_)"/></g><g/><g/><g/><g/><g/><g/><g/><g/><g/><g/><g/><g/><g/><g/><g/></svg>