<?xml version="1.0" ?><svg enable-background="new 0 0 24 24" id="Layer_1" version="1.1" viewBox="0 0 24 24" xml:space="preserve" xmlns="http://www.w3.org/2000/svg" xmlns:xlink="http://www.w3.org/1999/xlink"><g><path d="M12,0C5.3833008,0,0,5.3833008,0,12s5.3833008,12,12,12s12-5.3833008,12-12S18.6166992,0,12,0z" fill="#303C42"/><path d="M12,23C5.9345703,23,1,18.0654297,1,12S5.9345703,1,12,1s11,4.9345703,11,11S18.0654297,23,12,23z" fill="#FED600"/><path d="M19.2507324,3.7492676C20.9562378,5.687561,22,8.2213745,22,11   c0,6.0654297-4.9345703,11-11,11c-2.7786255,0-5.312439-1.0437622-7.2507324-2.7492676C5.7666626,21.543457,8.7131958,23,12,23   c6.0654297,0,11-4.9345703,11-11C23,8.7131958,21.543457,5.7666626,19.2507324,3.7492676z" fill="#010101" opacity="0.1"/><circle cx="8" cy="9" fill="#303C42" r="1"/><circle cx="16" cy="9" fill="#303C42" r="1"/><path d="M18.9931641,16.4179688C18.953125,16.1767578,18.7446289,16,18.5,16H16c0-0.2763672-0.2236328-0.5-0.5-0.5   S15,15.7236328,15,16h-1c0-0.2763672-0.2236328-0.5-0.5-0.5S13,15.7236328,13,16h-1c0-0.2763672-0.2236328-0.5-0.5-0.5   S11,15.7236328,11,16h-1c0-0.2763672-0.2236328-0.5-0.5-0.5S9,15.7236328,9,16H8c0-0.2763672-0.2236328-0.5-0.5-0.5   S7,15.7236328,7,16H6c0-0.2763672-0.2236328-0.5-0.5-0.5S5,15.7236328,5,16v1c0,0.2763672,0.2236328,0.5,0.5,0.5S6,17.2763672,6,17   h1c0,0.2763672,0.2236328,0.5,0.5,0.5S8,17.2763672,8,17h1c0,0.2763672,0.2236328,0.5,0.5,0.5S10,17.2763672,10,17h1   c0,0.2763672,0.2236328,0.5,0.5,0.5S12,17.2763672,12,17h1c0,0.2763672,0.2236328,0.5,0.5,0.5S14,17.2763672,14,17h1   c0,0.2763672,0.2236328,0.5,0.5,0.5S16,17.2763672,16,17h0.909668l-0.2382813,1.4311523   c-0.0654297,0.3911133,0.0439453,0.7890625,0.300293,1.0917969C17.2280273,19.8261719,17.6030273,20,18,20   s0.7719727-0.1738281,1.0283203-0.4770508c0.2563477-0.3027344,0.3657227-0.7006836,0.300293-1.0913086L18.9931641,16.4179688z" fill="#303C42"/><path d="M18.2651367,18.8769531C18.2260742,18.9228516,18.1401367,19,18,19   s-0.2260742-0.0771484-0.2651367-0.1230469c-0.0385742-0.0458984-0.1000977-0.1430664-0.0771484-0.28125L17.9238281,17h0.1523438   l0.2661133,1.5961914C18.3652344,18.7338867,18.3037109,18.8310547,18.2651367,18.8769531z" fill="#5C6771"/><linearGradient gradientUnits="userSpaceOnUse" id="SVGID_1_" x1="1.1249185" x2="22.875082" y1="6.9288664" y2="17.0711346"><stop offset="0" style="stop-color:#FFFFFF;stop-opacity:0.2"/><stop offset="1" style="stop-color:#FFFFFF;stop-opacity:0"/></linearGradient><path d="M12,0C5.3833008,0,0,5.3833008,0,12s5.3833008,12,12,12s12-5.3833008,12-12S18.6166992,0,12,0z" fill="url(#SVGID_1_)"/></g><g/><g/><g/><g/><g/><g/><g/><g/><g/><g/><g/><g/><g/><g/><g/></svg>