<?xml version="1.0" ?><svg enable-background="new 0 0 24 24" id="Layer_1" version="1.1" viewBox="0 0 24 24" xml:space="preserve" xmlns="http://www.w3.org/2000/svg" xmlns:xlink="http://www.w3.org/1999/xlink"><g><path d="M12,0C5.3833008,0,0,5.3833008,0,12s5.3833008,12,12,12s12-5.3833008,12-12S18.6166992,0,12,0z" fill="#303C42"/><path d="M12,23C5.9345703,23,1,18.0654297,1,12S5.9345703,1,12,1s11,4.9345703,11,11S18.0654297,23,12,23z" fill="#FED600"/><path d="M19.119751,3.630249C20.7561646,5.5509644,21.75,8.0349121,21.75,10.75   c0,6.0654297-4.9345703,11-11,11c-2.7150879,0-5.1990356-0.9938354-7.119751-2.630249C5.6494751,21.4898682,8.6496582,23,12,23   c6.0654297,0,11-4.9345703,11-11C23,8.6496582,21.4898682,5.6494751,19.119751,3.630249z" fill="#010101" opacity="0.1"/><circle cx="8" cy="9" fill="#303C42" r="1"/><circle cx="16" cy="9" fill="#303C42" r="1"/><path d="M19.0976563,15.890625l-0.5296631-0.5296631c0.086792-0.242981,0.1817627-0.4817505,0.2425537-0.737915   c0.0639648-0.269043-0.1020508-0.5385742-0.3706055-0.6020508c-0.2709961-0.065918-0.5385742,0.1020508-0.6020508,0.3706055   C17.1933594,17.1049805,14.7929688,19,12,19c-2.7963867,0-5.1977539-1.8979492-5.8393555-4.6147461   c-0.0639648-0.2695313-0.3349609-0.4335938-0.6015625-0.3720703c-0.269043,0.0634766-0.4355469,0.3330078-0.3720703,0.6015625   C5.9360352,17.7856445,8.737793,20,12,20c1.2315674,0,2.3965454-0.317688,3.411377-0.8815918l0.229248,0.229248   c0.4584961,0.4584961,1.0834961,0.7163086,1.7294922,0.7163086c0.0366211,0,0.0737305-0.0009766,0.1103516-0.0024414   c0.6845703-0.03125,1.3286133-0.3510742,1.7670898-0.8774414C20.0620117,18.206543,19.9975586,16.7905273,19.0976563,15.890625z" fill="#303C42"/><path d="M18.4790039,18.5439453c-0.2626953,0.315918-0.6333008,0.5-1.0439453,0.5185547   c-0.4072266,0.0102539-0.796875-0.1313477-1.0874023-0.421875l-0.0861816-0.0861816   c0.7692261-0.5894165,1.3988037-1.3465576,1.869812-2.2161255l0.2593384,0.2593384   C18.9223633,17.1293945,18.9604492,17.9663086,18.4790039,18.5439453z" fill="#E53A35"/><path d="M18.6627808,18.2056274c-0.2626953,0.315918-0.6333008,0.5-1.0439453,0.5185547   c-0.4019775,0.0101318-0.7858887-0.1290894-1.0751953-0.4120483c-0.0939331,0.0809326-0.1835938,0.166748-0.2821655,0.2423096   l0.0861816,0.0861816c0.2905273,0.2905273,0.6801758,0.4321289,1.0874023,0.421875   c0.4106445-0.0185547,0.78125-0.2026367,1.0439453-0.5185547c0.1231689-0.1478271,0.2102051-0.3129272,0.2658081-0.4852295   C18.7136841,18.1064453,18.7001343,18.1607666,18.6627808,18.2056274z" fill="#010101" opacity="0.1"/><linearGradient gradientUnits="userSpaceOnUse" id="SVGID_1_" x1="1.1249185" x2="22.875082" y1="6.9288664" y2="17.0711346"><stop offset="0" style="stop-color:#FFFFFF;stop-opacity:0.2"/><stop offset="1" style="stop-color:#FFFFFF;stop-opacity:0"/></linearGradient><path d="M12,0C5.3833008,0,0,5.3833008,0,12s5.3833008,12,12,12s12-5.3833008,12-12S18.6166992,0,12,0z" fill="url(#SVGID_1_)"/></g><g/><g/><g/><g/><g/><g/><g/><g/><g/><g/><g/><g/><g/><g/><g/></svg>