<?xml version="1.0" ?><svg enable-background="new 0 0 24 24" id="Layer_1" version="1.1" viewBox="0 0 24 24" xml:space="preserve" xmlns="http://www.w3.org/2000/svg" xmlns:xlink="http://www.w3.org/1999/xlink"><g><path d="M12,0C5.3828125,0,0,5.3828125,0,12s5.3828125,12,12,12s12-5.3828125,12-12S18.6171875,0,12,0z" fill="#303C42"/><path d="M12,23C5.9345703,23,1,18.0654297,1,12S5.9345703,1,12,1s11,4.9345703,11,11S18.0654297,23,12,23z" fill="#FED600"/><path d="M19.119751,3.630249C20.7561646,5.5509644,21.75,8.0349121,21.75,10.75   c0,6.0654297-4.9345703,11-11,11c-2.7150879,0-5.1990356-0.9938354-7.119751-2.630249C5.6494751,21.4898682,8.6496582,23,12,23   c6.0654297,0,11-4.9345703,11-11C23,8.6496582,21.4898682,5.6494751,19.119751,3.630249z" fill="#010101" opacity="0.1"/><path d="M7.5,11C8.3271484,11,9,10.3271484,9,9.5c0-0.2312012-0.0568848-0.4476929-0.1506958-0.6434326   C8.9419556,8.7658081,9,8.6400757,9,8.5C9,8.2236328,8.7763672,8,8.5,8h-3C5.2236328,8,5,8.2236328,5,8.5S5.2236328,9,5.5,9   h0.5921021C6.0360718,9.1571655,6,9.3238525,6,9.5C6,10.3271484,6.6728516,11,7.5,11z" fill="#303C42"/><circle cx="7.5" cy="9.5" fill="#BDDDF4" r="0.5"/><path d="M19,8.5C19,8.2236328,18.7763672,8,18.5,8h-3C15.2236328,8,15,8.2236328,15,8.5S15.2236328,9,15.5,9   h0.5921021C16.0360718,9.1571655,16,9.3238525,16,9.5c0,0.8271484,0.6728516,1.5,1.5,1.5S19,10.3271484,19,9.5   c0-0.2312012-0.0568848-0.4476929-0.1506958-0.6434326C18.9419556,8.7658081,19,8.6400757,19,8.5z" fill="#303C42"/><circle cx="17.5" cy="9.5" fill="#BDDDF4" r="0.5"/><path d="M12,15c-0.0009766,0-0.0019531,0-0.0029297,0c-4.1992188,0-5.8300781,2.1103516-5.8974609,2.2001953   c-0.1640625,0.2197266-0.1201172,0.5302734,0.0986328,0.6962891c0.2177734,0.1660156,0.5302734,0.1240234,0.7001953-0.09375   C6.9550781,17.7294922,8.3320313,16,11.9970703,16C11.9980469,16,11.9990234,16,12,16   c3.6669922,0.0009766,5.0449219,1.7294922,5.0996094,1.7998047C17.1982422,17.9306641,17.3486328,18,17.5,18   c0.1044922,0,0.2099609-0.0322266,0.2998047-0.0996094c0.2207031-0.1660156,0.265625-0.4794922,0.1005859-0.7001953   C17.8330078,17.1103516,16.2011719,15.0009766,12,15z" fill="#303C42"/><linearGradient gradientUnits="userSpaceOnUse" id="SVGID_1_" x1="1.1247724" x2="22.875227" y1="6.9287982" y2="17.0712013"><stop offset="0" style="stop-color:#FFFFFF;stop-opacity:0.2"/><stop offset="1" style="stop-color:#FFFFFF;stop-opacity:0"/></linearGradient><path d="M12,0C5.3828125,0,0,5.3828125,0,12s5.3828125,12,12,12s12-5.3828125,12-12S18.6171875,0,12,0z" fill="url(#SVGID_1_)"/></g><g/><g/><g/><g/><g/><g/><g/><g/><g/><g/><g/><g/><g/><g/><g/></svg>