<?xml version="1.0" ?><svg enable-background="new 0 0 24 24" id="Layer_1" version="1.1" viewBox="0 0 24 24" xml:space="preserve" xmlns="http://www.w3.org/2000/svg" xmlns:xlink="http://www.w3.org/1999/xlink"><g><path d="M12,0C5.3833008,0,0,5.3828125,0,12s5.3833008,12,12,12s12-5.3828125,12-12S18.6166992,0,12,0z" fill="#303C42"/><path d="M12,23C5.9345703,23,1,18.0654297,1,12S5.9345703,1,12,1s11,4.9345703,11,11S18.0654297,23,12,23z" fill="#FED600"/><path d="M19.119751,3.630249C20.7561646,5.5509644,21.75,8.0349121,21.75,10.75   c0,6.0654297-4.9345703,11-11,11c-2.7150879,0-5.1990356-0.9938354-7.119751-2.630249C5.6494751,21.4898682,8.6496582,23,12,23   c6.0654297,0,11-4.9345703,11-11C23,8.6496582,21.4898682,5.6494751,19.119751,3.630249z" fill="#010101" opacity="0.1"/><circle cx="8" cy="9" fill="#303C42" r="1"/><circle cx="16" cy="9" fill="#303C42" r="2"/><circle cx="16" cy="9" fill="#BDDDF4" r="1"/><path d="M16.4083862,8.0919189C16.4649658,8.2171631,16.5,8.3537598,16.5,8.5   c0,0.5517578-0.4487305,1-1,1c-0.1463013,0-0.28302-0.0352173-0.4083862-0.0919189C15.2485352,9.7554932,15.5947876,10,16,10   c0.5512695,0,1-0.4482422,1-1C17,8.5946655,16.7554321,8.2489014,16.4083862,8.0919189z" fill="#010101" opacity="0.1"/><path d="M17.1474609,15.1455078C17.1289063,15.1640625,15.2338867,17,12,17   s-5.1289063-1.8359375-5.1474609-1.8544922c-0.1962891-0.1953125-0.512207-0.1923828-0.706543,0.0029297   s-0.1943359,0.5097656,0.0004883,0.7050781C6.1937256,15.901001,6.84729,16.5214844,8,17.0841675V19.5   C8,19.7763672,8.2236328,20,8.5,20h2c0.2763672,0,0.5-0.2236328,0.5-0.5v-1.5681763C11.3230591,17.9663086,11.647644,18,12,18   s0.6769409-0.0336914,1-0.0681763V18.5c0,0.2763672,0.2236328,0.5,0.5,0.5h2c0.2763672,0,0.5-0.2236328,0.5-0.5v-1.4158325   c1.15271-0.5626831,1.8062744-1.1831665,1.8535156-1.2306519c0.1948242-0.1953125,0.1948242-0.5097656,0.0004883-0.7050781   C17.6601563,14.953125,17.3442383,14.9511719,17.1474609,15.1455078z" fill="#303C42"/><path d="M10,19H9v-1.5083008c0.3101196,0.1070557,0.6427612,0.1980591,1,0.2767944V19z" fill="#FFFFFF"/><rect fill="#010101" height="0.4916992" opacity="0.1" width="1" x="9" y="18.5083008"/><path d="M15,18h-1v-0.2315063c0.3572388-0.0787354,0.6898804-0.1697388,1-0.2767944V18z" fill="#FFFFFF"/><path d="M15,18h-1v-0.2315063c0.3572388-0.0787354,0.6898804-0.1697388,1-0.2767944V18z" fill="#010101" opacity="0.1"/><linearGradient gradientUnits="userSpaceOnUse" id="SVGID_1_" x1="1.1248375" x2="22.8751621" y1="6.9288282" y2="17.0711708"><stop offset="0" style="stop-color:#FFFFFF;stop-opacity:0.2"/><stop offset="1" style="stop-color:#FFFFFF;stop-opacity:0"/></linearGradient><path d="M12,0C5.3833008,0,0,5.3828125,0,12s5.3833008,12,12,12s12-5.3828125,12-12S18.6166992,0,12,0z" fill="url(#SVGID_1_)"/></g><g/><g/><g/><g/><g/><g/><g/><g/><g/><g/><g/><g/><g/><g/><g/></svg>