<?xml version="1.0" ?><svg enable-background="new 0 0 24 24" id="Layer_1" version="1.1" viewBox="0 0 24 24" xml:space="preserve" xmlns="http://www.w3.org/2000/svg" xmlns:xlink="http://www.w3.org/1999/xlink"><g><path d="M23.5605469,17.4818916c-0.1376953-0.1377068-0.2958984-0.2431831-0.4648438-0.316433   c0.3271484-0.5723114,0.2460938-1.3165131-0.2421875-1.8048334c-0.4463501-0.4473019-1.1037598-0.535078-1.6517334-0.2988529   C21.7224121,13.7608242,22,12.3992023,22,11.0008955C22,4.9349718,17.0654297,0,11,0S0,4.9349718,0,11.0008955   S4.9345703,22.001791,11,22.001791c0.9696045,0,1.9262695-0.1338615,2.8538818-0.3836384   c0.2622681,0.5123711,0.6269531,0.9270172,0.9439697,1.2440586C15.5566406,23.6210632,16.5537109,24,17.5498047,24   c0.9970703,0,1.9941406-0.3789368,2.7529297-1.1377888l3.2568359-3.2580776C23.8847656,19.2808666,24,18.8228207,24,18.5015049   C24,18.1274509,23.84375,17.7651176,23.5605469,17.4818916z" fill="#303C42"/><path d="M11,21C5.4863281,21,1,16.5136719,1,11S5.4863281,1,11,1s10,4.4863281,10,10   c0,1.1729736-0.2161255,2.3181763-0.6201782,3.4186401c-0.5688477-0.3093262-1.2883911-0.2463989-1.7684937,0.2337036   l-1.9121094,1.9121094l0.0175781-0.3652344c0-0.8896484-0.7246094-1.6132813-1.6142578-1.6132813   c-0.8330078,0-1.5224609,0.625-1.6074219,1.5058594l0.0023193,0.3955078C13.4902954,16.2171021,13.2718506,16,13,16H6.5   C6.2236328,16,6,16.2236328,6,16.5S6.2236328,17,6.5,17H13c0.2721558,0,0.4909668-0.2175293,0.4976196-0.4880371   l0.0199585,3.3933105c-0.0272217,0.2700195-0.0093994,0.5203857,0.0282593,0.7601318C12.7179565,20.8831787,11.8647461,21,11,21z" fill="#FED600"/><path d="M22.8535156,18.8945313l-3.2578125,3.2587891c-1.1259766,1.1259766-2.9628906,1.1279297-4.0908203,0   c-0.7597656-0.7597656-1.0654297-1.421875-0.9902344-2.2011719l-0.0224609-3.8134766   c0.0322266-0.3154297,0.2939453-0.5527344,0.6103516-0.5527344c0.3388672,0,0.6142578,0.2753906,0.6152344,0.5888672   l-0.0810547,1.6347656c-0.0107422,0.2060547,0.1074219,0.3974609,0.2958984,0.4814453   C16.1220703,18.375,16.3427734,18.3330078,16.4892578,18.1875l2.8291016-2.828125   c0.1953125-0.1953125,0.5117188-0.1953125,0.7070313,0s0.1953125,0.5117188,0,0.7070313l-1.4140625,1.4140625   c-0.0976563,0.0976563-0.1464844,0.2255859-0.1464844,0.3535156s0.0488281,0.2558594,0.1464844,0.3535156   c0.1953125,0.1953125,0.5117188,0.1953125,0.7070313,0l2.1210938-2.1210938c0.1953125-0.1953125,0.5117188-0.1953125,0.7070313,0   s0.1953125,0.5117188,0,0.7070313l-0.7041016,0.7041016c-0.0009766,0.0009766-0.0019531,0.0019531-0.0029297,0.0029297   l-1.4140625,1.4140625c-0.0976563,0.0976563-0.1464844,0.2255859-0.1464844,0.3535156s0.0488281,0.2558594,0.1464844,0.3535156   c0.1953125,0.1953125,0.5117188,0.1953125,0.7070313,0L22.1464844,18.1875c0.1894531-0.1894531,0.5175781-0.1894531,0.7070313,0   C22.9462891,18.2802734,23,18.3945313,23,18.5C23,18.6201172,22.9492188,18.7998047,22.8535156,18.8945313z" fill="#FED600"/><path d="M22.8535156,18.1875c-0.095459-0.095459-0.2259521-0.1422729-0.3563232-0.1415405   c-0.0090942,0.1174927-0.0529175,0.2679443-0.1390381,0.3532104l-3.2578125,3.2587891   c-1.05896,1.05896-2.739563,1.1104736-3.875,0.1761475c0.0906982,0.105896,0.1702881,0.2099609,0.279541,0.3192139   c1.1279297,1.1279297,2.9648438,1.1259766,4.0908203,0l3.2578125-3.2587891C22.9492188,18.7998047,23,18.6201172,23,18.5   C23,18.3945313,22.9462891,18.2802734,22.8535156,18.1875z" fill="#010101" opacity="0.1"/><circle cx="15" cy="8" fill="#303C42" r="1"/><circle cx="7" cy="8" fill="#303C42" r="1"/><g><path d="M20.8823242,9.5482788c-0.0330811-0.2266235-0.0670166-0.453064-0.1151123-0.6744995    c-0.0319214-0.1467285-0.0736084-0.2896118-0.1118774-0.4338989c-0.0509033-0.1918945-0.1026611-0.3833008-0.1644897-0.5704956    c-0.0500488-0.1513062-0.1070557-0.2993774-0.1640625-0.4474487c-0.0664063-0.1726685-0.135498-0.3439941-0.2110596-0.5119019    c-0.0674438-0.1495361-0.138916-0.2966919-0.2133789-0.4422607c-0.0806885-0.1578979-0.1657715-0.3129883-0.2544556-0.4658813    c-0.0834351-0.1437988-0.1685181-0.286377-0.2587891-0.4255371c-0.0951538-0.1467285-0.1965332-0.2888794-0.2990112-0.4301758    c-0.0970459-0.133728-0.1933594-0.2680054-0.2967529-0.3966064c-0.1118164-0.1390381-0.2313232-0.2713013-0.3502197-0.4041138    c-0.1066895-0.1191406-0.2103882-0.2409668-0.3225708-0.3548584c-0.1375732-0.1397095-0.2845459-0.2696533-0.4301147-0.401123    c-0.0860596-0.0778198-0.1687622-0.1593018-0.2575073-0.2340698C18.8776855,5.0891724,19.75,7.3166504,19.75,9.75    c0,1.9435425-0.5634155,3.7514648-1.5227661,5.286438l0.3840942-0.3840942    c0.4801025-0.4801025,1.199646-0.5430298,1.7684937-0.2337036c0.1987915-0.5415039,0.3510132-1.0940552,0.4554443-1.6551514    c0.0095825-0.0535889,0.0160522-0.1081543,0.0247192-0.1620483c0.038147-0.225708,0.0714111-0.4522095,0.0935059-0.680542    C20.9812622,11.6172485,21,11.3109131,21,11c0-0.3656006-0.022644-0.7258301-0.0609741-1.0812378    C20.9255371,9.7935791,20.9004517,9.6720581,20.8823242,9.5482788z" fill="#010101" opacity="0.1"/><path d="M12.4274292,20.8865356c0.3482056-0.0513916,0.6936646-0.1177979,1.0344238-0.2045288    c0.0278931-0.0070801,0.0556641-0.0141602,0.0834961-0.0214844c-0.0371704-0.2382813-0.0548096-0.4869995-0.027771-0.755249    l-0.005249-0.8934937C12.3502197,19.484375,11.0817871,19.75,9.75,19.75c-2.4334717,0-4.6610718-0.8725586-6.3949585-2.3174438    c0.0744019,0.0883179,0.1555176,0.1704712,0.2328491,0.2561035c0.1320801,0.1462402,0.2625732,0.2938843,0.4029541,0.4321289    c0.1135254,0.1117554,0.2348633,0.2151489,0.3535767,0.3214111c0.1331177,0.1192017,0.265625,0.2389526,0.4050293,0.3510132    c0.1287231,0.1034546,0.2630615,0.1998901,0.3968506,0.2969971c0.1412354,0.102478,0.2833252,0.2037354,0.4299927,0.2988281    c0.1391602,0.090271,0.2816772,0.175354,0.4254761,0.2587891c0.15271,0.088623,0.3076172,0.1734619,0.465271,0.2540894    c0.1462402,0.0747681,0.2940674,0.1467285,0.4443359,0.2143555c0.1668091,0.0750732,0.3369751,0.1436157,0.5084839,0.2096558    c0.1489868,0.057373,0.2978516,0.1147461,0.4501343,0.1651001c0.1867065,0.0617065,0.3776855,0.1133423,0.5690918,0.1641235    c0.1445923,0.0384521,0.2877808,0.0800171,0.4348145,0.1120605c0.2213135,0.0480347,0.4476318,0.0819702,0.6741943,0.1150513    c0.1238403,0.0181274,0.2454224,0.0432129,0.3706665,0.0567627C10.2741699,20.977356,10.6343384,21,11,21    c0.4075928,0,0.8120117-0.0305176,1.2130737-0.0807495C12.2852173,20.9105225,12.3557129,20.8968506,12.4274292,20.8865356z" fill="#010101" opacity="0.1"/></g><linearGradient gradientUnits="userSpaceOnUse" id="SVGID_1_" x1="1.0309943" x2="24.6878471" y1="6.3522716" y2="17.3836422"><stop offset="0" style="stop-color:#FFFFFF;stop-opacity:0.2"/><stop offset="1" style="stop-color:#FFFFFF;stop-opacity:0"/></linearGradient><path d="M23.5605469,17.4818916c-0.1376953-0.1377068-0.2958984-0.2431831-0.4648438-0.316433   c0.3271484-0.5723114,0.2460938-1.3165131-0.2421875-1.8048334c-0.4463501-0.4473019-1.1037598-0.535078-1.6517334-0.2988529   C21.7224121,13.7608242,22,12.3992023,22,11.0008955C22,4.9349718,17.0654297,0,11,0S0,4.9349718,0,11.0008955   S4.9345703,22.001791,11,22.001791c0.9696045,0,1.9262695-0.1338615,2.8538818-0.3836384   c0.2622681,0.5123711,0.6269531,0.9270172,0.9439697,1.2440586C15.5566406,23.6210632,16.5537109,24,17.5498047,24   c0.9970703,0,1.9941406-0.3789368,2.7529297-1.1377888l3.2568359-3.2580776C23.8847656,19.2808666,24,18.8228207,24,18.5015049   C24,18.1274509,23.84375,17.7651176,23.5605469,17.4818916z" fill="url(#SVGID_1_)"/></g><g/><g/><g/><g/><g/><g/><g/><g/><g/><g/><g/><g/><g/><g/><g/></svg>