<?xml version="1.0" ?><svg enable-background="new 0 0 24 24" id="Layer_1" version="1.1" viewBox="0 0 24 24" xml:space="preserve" xmlns="http://www.w3.org/2000/svg" xmlns:xlink="http://www.w3.org/1999/xlink"><g><path d="M12,0C5.3828125,0,0,5.3833008,0,12s5.3828125,12,12,12s12-5.3833008,12-12S18.6171875,0,12,0z" fill="#303C42"/><path d="M12,23C5.9345703,23,1,18.0654297,1,12S5.9345703,1,12,1s11,4.9345703,11,11S18.0654297,23,12,23z" fill="#FED600"/><path d="M19.119751,3.630249C20.7561646,5.5509644,21.75,8.0349121,21.75,10.75   c0,6.0654297-4.9345703,11-11,11c-2.7150879,0-5.1990356-0.9938354-7.119751-2.630249C5.6494751,21.4898682,8.6496582,23,12,23   c6.0654297,0,11-4.9345703,11-11C23,8.6496582,21.4898682,5.6494751,19.119751,3.630249z" fill="#010101" opacity="0.1"/><path d="M18.6455078,15.027832c-0.2626953-0.0834961-0.5429688,0.0688477-0.6240234,0.3320313   C17.3789063,17.4692383,14.8466797,19,12,19c-2.8486328,0-5.3818359-1.5332031-6.0234375-3.6450195   c-0.0800781-0.2646484-0.3564453-0.4140625-0.6240234-0.3334961c-0.2636719,0.0800781-0.4130859,0.359375-0.3330078,0.6235352   C5.7978516,18.2094727,8.6689453,20,12,20c3.328125,0,6.1982422-1.7880859,6.9785156-4.3481445   C19.0585938,15.3876953,18.9101563,15.1079102,18.6455078,15.027832z" fill="#303C42"/><circle cx="4.5" cy="12.5" fill="#303C42" r="1.5"/><circle cx="4.5" cy="12.5" fill="#E53A35" r="0.5"/><circle cx="19.5" cy="12.5" fill="#303C42" r="1.5"/><circle cx="19.5" cy="12.5" fill="#E53A35" r="0.5"/><circle cx="8" cy="9" fill="#303C42" r="1"/><circle cx="16" cy="9" fill="#303C42" r="1"/><linearGradient gradientUnits="userSpaceOnUse" id="SVGID_1_" x1="1.1248534" x2="22.8751469" y1="6.9288359" y2="17.0711651"><stop offset="0" style="stop-color:#FFFFFF;stop-opacity:0.2"/><stop offset="1" style="stop-color:#FFFFFF;stop-opacity:0"/></linearGradient><path d="M12,0C5.3828125,0,0,5.3833008,0,12s5.3828125,12,12,12s12-5.3833008,12-12S18.6171875,0,12,0z" fill="url(#SVGID_1_)"/></g><g/><g/><g/><g/><g/><g/><g/><g/><g/><g/><g/><g/><g/><g/><g/></svg>