<?xml version="1.0" ?><svg enable-background="new 0 0 24 24" id="Layer_1" version="1.1" viewBox="0 0 24 24" xml:space="preserve" xmlns="http://www.w3.org/2000/svg" xmlns:xlink="http://www.w3.org/1999/xlink"><g><path d="M20.3278809,3.3791504l0.5256348-0.5256348c0.1425781-0.1430664,0.1855469-0.3579102,0.1083984-0.5449219   S20.7021484,2,20.5,2h-1.8811035C16.7199707,0.7389526,14.4455566,0,12,0C5.3828125,0,0,5.3833008,0,12s5.3828125,12,12,12   s12-5.3833008,12-12C24,8.6171875,22.5874634,5.5626221,20.3278809,3.3791504z" fill="#303C42"/><path d="M12,23C5.9345703,23,1,18.0654297,1,12S5.9345703,1,12,1c1.6260376,0,3.1655884,0.3640137,4.5557861,1H16.5   C16.2236328,2,16,2.2236328,16,2.5S16.2236328,3,16.5,3h1.8047485c0.192749,0.135437,0.3818359,0.2757568,0.5652466,0.4229736   l-2.7235107,2.7235107c-0.1425781,0.1430664-0.1855469,0.3579102-0.1083984,0.5449219S16.2978516,7,16.5,7h4   C20.7763672,7,21,6.7763672,21,6.5S20.7763672,6,20.5,6h-2.7929688l1.9140625-1.9140625C21.699646,6.0881958,23,8.8928223,23,12   C23,18.0654297,18.0654297,23,12,23z" fill="#FED600"/><path d="M19.6210938,4.0859375l-0.088623,0.088623   c0.4313965,0.5782471,0.8061523,1.1986084,1.1188965,1.855957C20.852356,6.0953979,21,6.2773438,21,6.5   c0,0.0776367-0.0209351,0.1488037-0.0524292,0.2142944c0.4902344,1.2425537,0.7714844,2.5894775,0.7714844,4.0047607   c0,6.0654297-4.9345703,11-11,11c-2.7072754,0-5.1850586-0.9876099-7.1035156-2.6155396C5.6348267,21.4832153,8.6418457,23,12,23   c6.0654297,0,11-4.9345703,11-11C23,8.8928223,21.699646,6.0881958,19.6210938,4.0859375z" fill="#010101" opacity="0.1"/><path d="M14.1806641,18.1162109c-1.4013672,1.1694336-2.9580078,1.1708984-4.359375,0.0014648   c-0.2109375-0.175293-0.5273438-0.1484375-0.7041016,0.0634766S8.96875,18.7084961,9.1806641,18.8852539   C10.0654297,19.6240234,11.0136719,19.9985352,12,19.9985352c0.9873047,0,1.9365234-0.375,2.8212891-1.1147461   c0.2119141-0.1772461,0.2402344-0.4926758,0.0634766-0.7045898C14.7070313,17.9667969,14.3896484,17.9389648,14.1806641,18.1162109   z" fill="#303C42"/><path d="M18.5,8.5C18.2236328,8.5,18,8.7236328,18,9c0,1.1030273-0.8974609,2-2,2s-2-0.8969727-2-2   c0-0.2763672-0.2236328-0.5-0.5-0.5S13,8.7236328,13,9c0,1.6542969,1.3457031,3,3,3s3-1.3457031,3-3   C19,8.7236328,18.7763672,8.5,18.5,8.5z" fill="#303C42"/><path d="M11,9c0-0.2763672-0.2236328-0.5-0.5-0.5S10,8.7236328,10,9c0,1.1030273-0.8974609,2-2,2s-2-0.8969727-2-2   c0-0.2763672-0.2236328-0.5-0.5-0.5S5,8.7236328,5,9c0,1.6542969,1.3457031,3,3,3S11,10.6542969,11,9z" fill="#303C42"/><path d="M21.5,2h0.7929688l-1.1464844,1.1464844c-0.1425781,0.1430664-0.1855469,0.3579102-0.1083984,0.5449219   S21.2978516,4,21.5,4h2C23.7763672,4,24,3.7763672,24,3.5S23.7763672,3,23.5,3h-0.7929688l1.1464844-1.1464844   c0.1425781-0.1430664,0.1855469-0.3579102,0.1083984-0.5449219S23.7021484,1,23.5,1h-2C21.2236328,1,21,1.2236328,21,1.5   S21.2236328,2,21.5,2z" fill="#303C42"/><linearGradient gradientUnits="userSpaceOnUse" id="SVGID_1_" x1="1.27337" x2="23.0236626" y1="6.6103406" y2="16.7526684"><stop offset="0" style="stop-color:#FFFFFF;stop-opacity:0.2"/><stop offset="1" style="stop-color:#FFFFFF;stop-opacity:0"/></linearGradient><path d="M20.3278809,3.3791504l0.5256348-0.5256348   c0.1425781-0.1430664,0.1855469-0.3579102,0.1083984-0.5449219S20.7021484,2,20.5,2h-1.8811035   C16.7199707,0.7389526,14.4455566,0,12,0C5.3828125,0,0,5.3833008,0,12s5.3828125,12,12,12s12-5.3833008,12-12   C24,8.6171875,22.5874634,5.5626221,20.3278809,3.3791504z" fill="url(#SVGID_1_)"/></g><g/><g/><g/><g/><g/><g/><g/><g/><g/><g/><g/><g/><g/><g/><g/></svg>