<?xml version="1.0" ?><svg enable-background="new 0 0 24 24" id="Layer_1" version="1.1" viewBox="0 0 24 24" xml:space="preserve" xmlns="http://www.w3.org/2000/svg" xmlns:xlink="http://www.w3.org/1999/xlink"><g><path d="M12,0C5.3833008,0,0,5.3833008,0,12s5.3833008,12,12,12s12-5.3833008,12-12S18.6166992,0,12,0z" fill="#303C42"/><path d="M12,23C5.9345703,23,1,18.0654297,1,12S5.9345703,1,12,1s11,4.9345703,11,11S18.0654297,23,12,23z" fill="#FED600"/><path d="M19.119751,3.630249C20.7561646,5.5509644,21.75,8.0349121,21.75,10.75   c0,6.0654297-4.9345703,11-11,11c-2.7150879,0-5.1990356-0.9938354-7.119751-2.630249C5.6494751,21.4898682,8.6496582,23,12,23   c6.0654297,0,11-4.9345703,11-11C23,8.6496582,21.4898682,5.6494751,19.119751,3.630249z" fill="#010101" opacity="0.1"/><path d="M18.5,8.5C18.2236328,8.5,18,8.7236328,18,9c0,1.1030273-0.8969727,2-2,2s-2-0.8969727-2-2   c0-0.2763672-0.2236328-0.5-0.5-0.5S13,8.7236328,13,9c0,1.6542969,1.3457031,3,3,3s3-1.3457031,3-3   C19,8.7236328,18.7763672,8.5,18.5,8.5z" fill="#303C42"/><path d="M11,9c0-0.2763672-0.2236328-0.5-0.5-0.5S10,8.7236328,10,9c0,1.1030273-0.8969727,2-2,2s-2-0.8969727-2-2   c0-0.2763672-0.2236328-0.5-0.5-0.5S5,8.7236328,5,9c0,1.6542969,1.3457031,3,3,3S11,10.6542969,11,9z" fill="#303C42"/><path d="M12,15h-0.0014648c-4.2006836,0-5.8310547,2.1103516-5.8984375,2.2001953   c-0.1650391,0.2197266-0.1206055,0.5297852,0.0981445,0.6962891c0.2192383,0.1660156,0.53125,0.1235352,0.699707-0.09375   C6.9545898,17.7290039,8.3325195,16,11.9985352,16H12c3.6669922,0.0004883,5.0454102,1.7294922,5.1000977,1.800293   C17.1982422,17.9311523,17.3481445,18,17.5004883,18c0.1044922,0,0.2094727-0.0327148,0.2998047-0.1000977   c0.2207031-0.1655273,0.265625-0.4790039,0.0996094-0.7001953C17.8325195,17.1103516,16.2016602,15.0004883,12,15z" fill="#303C42"/><path d="M19.5981445,7.0097656l-5-1c-0.2739258-0.0576172-0.534668,0.1210938-0.5883789,0.3920898   c-0.0541992,0.2709961,0.121582,0.5341797,0.3920898,0.5883789l5,1C19.4350586,7.9970703,19.4682617,8,19.5004883,8   c0.2333984,0,0.4423828-0.1640625,0.4897461-0.4018555C20.0444336,7.3271484,19.8686523,7.0639648,19.5981445,7.0097656z" fill="#303C42"/><path d="M9.9902344,6.4018555C9.9360352,6.1313477,9.6767578,5.953125,9.4018555,6.0097656l-5,1   C4.1313477,7.0639648,3.9555664,7.3271484,4.0097656,7.5981445C4.0571289,7.8359375,4.2661133,8,4.4995117,8   c0.0322266,0,0.0654297-0.0029297,0.0986328-0.0097656l5-1C9.8686523,6.9360352,10.0444336,6.6728516,9.9902344,6.4018555z" fill="#303C42"/><linearGradient gradientUnits="userSpaceOnUse" id="SVGID_1_" x1="1.1249185" x2="22.875082" y1="6.9288664" y2="17.0711346"><stop offset="0" style="stop-color:#FFFFFF;stop-opacity:0.2"/><stop offset="1" style="stop-color:#FFFFFF;stop-opacity:0"/></linearGradient><path d="M12,0C5.3833008,0,0,5.3833008,0,12s5.3833008,12,12,12s12-5.3833008,12-12S18.6166992,0,12,0z" fill="url(#SVGID_1_)"/></g><g/><g/><g/><g/><g/><g/><g/><g/><g/><g/><g/><g/><g/><g/><g/></svg>