<?xml version="1.0" ?><svg enable-background="new 0 0 24 24" id="Layer_1" version="1.1" viewBox="0 0 24 24" xml:space="preserve" xmlns="http://www.w3.org/2000/svg" xmlns:xlink="http://www.w3.org/1999/xlink"><g><path d="M12,0C5.3833008,0,0,5.3828125,0,12s5.3833008,12,12,12s12-5.3828125,12-12S18.6166992,0,12,0z" fill="#303C42"/><path d="M12,23C5.9345703,23,1,18.0654297,1,12S5.9345703,1,12,1s11,4.9345703,11,11S18.0654297,23,12,23z" fill="#FED600"/><path d="M18.9884033,3.5115967C20.5567017,5.413147,21.5,7.8484497,21.5,10.5   c0,6.0654297-4.9345703,11-11,11c-2.6515503,0-5.086853-0.9432983-6.9884033-2.5115967C5.5307617,21.4366455,8.5861206,23,12,23   c6.0654297,0,11-4.9345703,11-11C23,8.5861206,21.4366455,5.5307617,18.9884033,3.5115967z" fill="#010101" opacity="0.1"/><circle cx="8" cy="9" fill="#303C42" r="2"/><circle cx="8" cy="9" fill="#BDDDF4" r="1"/><path d="M8.4083862,8.0919189C8.4649658,8.2171631,8.5,8.3537598,8.5,8.5   c0,0.5517578-0.4487305,1-1,1c-0.1463013,0-0.28302-0.0352173-0.4083862-0.0919189C7.2485352,9.7554932,7.5947876,10,8,10   c0.5512695,0,1-0.4482422,1-1C9,8.5946655,8.7554321,8.2489014,8.4083862,8.0919189z" fill="#010101" opacity="0.1"/><circle cx="16" cy="9" fill="#303C42" r="2"/><circle cx="16" cy="9" fill="#BDDDF4" r="1"/><path d="M16.5,17c-0.6254883,0-0.9418945,0.4208984-1.1513672,0.6992188   C15.1591797,17.9521484,15.1030273,18,14.9970703,18s-0.1621094-0.0478516-0.3515625-0.3007813   C14.4360352,17.4208984,14.1196289,17,13.4941406,17s-0.9414063,0.4208984-1.1503906,0.7001953   C12.1542969,17.9521484,12.0986328,18,11.9936523,18c-0.1044922,0-0.159668-0.0478516-0.3481445-0.2998047   C11.4365234,17.421875,11.1210938,17,10.496582,17c-0.625,0-0.9404297,0.4208984-1.1494141,0.7001953   C9.1577148,17.9521484,9.1025391,18,8.9975586,18c-0.1044922,0-0.1601563-0.0478516-0.3486328-0.2998047   C8.4399414,17.4208984,8.1245117,17,7.5,17C7.2236328,17,7,17.2236328,7,17.5S7.2236328,18,7.5,18   c0.1044922,0,0.159668,0.0478516,0.3481445,0.2998047C8.0571289,18.578125,8.3725586,19,8.9975586,19   s0.9404297-0.4208984,1.1494141-0.7001953C10.3364258,18.0478516,10.3916016,18,10.496582,18   c0.1044922,0,0.159668,0.0478516,0.3481445,0.2998047C11.0537109,18.578125,11.3691406,19,11.9936523,19   c0.625,0,0.940918-0.4208984,1.1499023-0.7001953C13.3330078,18.0478516,13.3886719,18,13.4941406,18   c0.105957,0,0.1621094,0.0478516,0.3515625,0.3007813C14.0551758,18.5791016,14.371582,19,14.9970703,19   s0.9418945-0.4208984,1.1513672-0.6992188C16.3378906,18.0478516,16.394043,18,16.5,18c0.2763672,0,0.5-0.2236328,0.5-0.5   S16.7763672,17,16.5,17z" fill="#303C42"/><path d="M16.4083862,8.0919189C16.4649658,8.2171631,16.5,8.3537598,16.5,8.5   c0,0.5517578-0.4487305,1-1,1c-0.1463013,0-0.28302-0.0352173-0.4083862-0.0919189C15.2485352,9.7554932,15.5947876,10,16,10   c0.5512695,0,1-0.4482422,1-1C17,8.5946655,16.7554321,8.2489014,16.4083862,8.0919189z" fill="#010101" opacity="0.1"/><linearGradient gradientUnits="userSpaceOnUse" id="SVGID_1_" x1="1.1248375" x2="22.8751621" y1="6.9288282" y2="17.0711708"><stop offset="0" style="stop-color:#FFFFFF;stop-opacity:0.2"/><stop offset="1" style="stop-color:#FFFFFF;stop-opacity:0"/></linearGradient><path d="M12,0C5.3833008,0,0,5.3828125,0,12s5.3833008,12,12,12s12-5.3828125,12-12S18.6166992,0,12,0z" fill="url(#SVGID_1_)"/></g><g/><g/><g/><g/><g/><g/><g/><g/><g/><g/><g/><g/><g/><g/><g/></svg>