<?xml version="1.0" ?><svg enable-background="new 0 0 24 24" id="Layer_1" version="1.1" viewBox="0 0 24 24" xml:space="preserve" xmlns="http://www.w3.org/2000/svg" xmlns:xlink="http://www.w3.org/1999/xlink"><g><path d="M23,11c0-6.0654297-4.9345703-11-11-11S1,4.9345703,1,11   c0,3.7992554,1.9188843,7.2311401,5.0636597,9.2436523C5.4341431,20.5808105,5,21.2371216,5,22c0,1.1030273,0.8974609,2,2,2h10   c1.1025391,0,2-0.8969727,2-2c0-0.7630005-0.4342651-1.4194336-1.0639648-1.7565308C21.0805664,18.2315674,23,14.7998657,23,11z" fill="#303C42"/><path d="M17,23H7c-0.5517578,0-1-0.4487305-1-1s0.4482422-1,1-1c1.1025391,0,2-0.8969727,2-2v-3.5681763   C9.8832397,15.1495972,10.8095093,15,11.7363281,15h0.5273438C13.1904907,15,14.1167603,15.1495972,15,15.4318237V19   c0,1.1030273,0.8974609,2,2,2c0.5517578,0,1,0.4487305,1,1S17.5517578,23,17,23z" fill="#D4E05A"/><path d="M17,21c-1.1025391,0-2-0.8969727-2-2v-3.5681763   c-0.3339844-0.1067505-0.6783447-0.1754761-1.0223999-0.2433472L13.8535156,19c0,1.1030273,0.8974609,2,2,2   c0.5517578,0,1,0.4487305,1,1s-0.4482422,1-1,1H17c0.5517578,0,1-0.4487305,1-1S17.5517578,21,17,21z" fill="#010101" opacity="0.1"/><path d="M7,21c1.1025391,0,2-0.8969727,2-2v-3.5681763   c0.3339844-0.1067505,0.6783447-0.1754761,1.0223999-0.2433472L10.1464844,19c0,1.1030273-0.8974609,2-2,2   c-0.5517578,0-1,0.4487305-1,1s0.4482422,1,1,1H7c-0.5517578,0-1-0.4487305-1-1S6.4482422,21,7,21z" fill="#FFFFFF" opacity="0.2"/><path d="M16.5634155,19.8891602C16.2329102,19.725708,16,19.3928223,16,19v-2.1472778   c0.4888306-0.2834473,0.8335571-0.9013062,0.9472656-1.1290894c0.1230469-0.2470703,0.0234375-0.5473633-0.2236328-0.6708984   C15.3457031,14.3642578,13.8037109,14,12.2636719,14h-0.5273438c-1.5400391,0-3.0820313,0.3642578-4.4599609,1.0527344   c-0.2470703,0.1235352-0.3466797,0.4238281-0.2236328,0.6708984C7.1664429,15.951416,7.5111694,16.5692139,8,16.8527222V19   c0,0.3930054-0.2330933,0.7261353-0.5638428,0.8894653C4.0825806,18.1654053,2,14.7792969,2,11C2,5.4858398,6.4863281,1,12,1   s10,4.4858398,10,10C22,14.7796021,19.9176025,18.1654663,16.5634155,19.8891602z" fill="#C0CA33"/><path d="M9.5,8h-3C6.2236328,8,6,8.2236328,6,8.5S6.2236328,9,6.5,9h3C9.7763672,9,10,8.7763672,10,8.5   S9.7763672,8,9.5,8z" fill="#303C42"/><path d="M17.5,8h-3C14.2236328,8,14,8.2236328,14,8.5S14.2236328,9,14.5,9h3C17.7763672,9,18,8.7763672,18,8.5   S17.7763672,8,17.5,8z" fill="#303C42"/><path d="M11.8535156,16.1464844c-0.1953125-0.1953125-0.5117188-0.1953125-0.7070313,0l-1,1   c-0.1953125,0.1953125-0.1953125,0.5117188,0,0.7070313C10.2441406,17.9511719,10.3720703,18,10.5,18   s0.2558594-0.0488281,0.3535156-0.1464844l1-1C12.0488281,16.6582031,12.0488281,16.3417969,11.8535156,16.1464844z" fill="#303C42"/><path d="M12.8535156,19.1464844c-0.1953125-0.1953125-0.5117188-0.1953125-0.7070313,0   s-0.1953125,0.5117188,0,0.7070313l1,1C13.2441406,20.9511719,13.3720703,21,13.5,21s0.2558594-0.0488281,0.3535156-0.1464844   c0.1953125-0.1953125,0.1953125-0.5117188,0-0.7070313L12.8535156,19.1464844z" fill="#303C42"/><path d="M10.1464844,20.1464844l-1,1c-0.1953125,0.1953125-0.1953125,0.5117188,0,0.7070313   C9.2441406,21.9511719,9.3720703,22,9.5,22s0.2558594-0.0488281,0.3535156-0.1464844l1-1   c0.1953125-0.1953125,0.1953125-0.5117188,0-0.7070313S10.3417969,19.9511719,10.1464844,20.1464844z" fill="#303C42"/><path d="M21.8824463,9.5492554c-0.0331421-0.2271729-0.0671387-0.4541016-0.1153564-0.6760254   c-0.0317383-0.1460571-0.0731812-0.288208-0.1113281-0.4318237c-0.0510254-0.192749-0.1030884-0.3849487-0.1651611-0.572876   c-0.0498047-0.1505737-0.1065063-0.2978516-0.163208-0.4451294c-0.0667725-0.173645-0.1361694-0.3458862-0.2122192-0.5147095   c-0.0668945-0.1484985-0.1380005-0.2946167-0.2119141-0.4391479c-0.0814209-0.1593628-0.1671143-0.3158569-0.2566528-0.4700928   c-0.0826416-0.142395-0.1669312-0.2835693-0.2563477-0.4213867c-0.0961914-0.1484375-0.1986084-0.2921753-0.3023071-0.4349976   c-0.0960083-0.1322632-0.1913452-0.2650146-0.2935791-0.3922729c-0.1131592-0.1408691-0.2341919-0.2747803-0.3546753-0.4092407   c-0.1052246-0.1174316-0.2075195-0.2376099-0.3180542-0.3499756c-0.1403809-0.1426392-0.2903442-0.2753296-0.4390259-0.4093628   c-0.0837402-0.0755005-0.1639404-0.1547241-0.2501831-0.227417C19.8773804,5.0886841,20.75,7.3164063,20.75,9.75   c0,3.5945435-1.9029541,6.7368164-4.75,8.4993896V19c0,0.3928223,0.2329102,0.725708,0.5634155,0.8891602   c0.4155884-0.213562,0.8110962-0.4532471,1.1860962-0.7154541c0.012207-0.008606,0.0236206-0.0181274,0.0357666-0.0267944   c0.3240967-0.2286987,0.6268921-0.4799805,0.9182129-0.7418213c0.0686035-0.0621948,0.1386719-0.1228027,0.2055664-0.1868286   c0.2880859-0.2738037,0.5614624-0.5608521,0.8130493-0.8648682c0.0618286-0.0750732,0.1151733-0.1569214,0.1748047-0.2337646   c0.1807861-0.2319946,0.3512573-0.4712524,0.5103149-0.7179565c0.086792-0.1348267,0.1695557-0.2722778,0.249939-0.411438   c0.1311035-0.2269287,0.2511597-0.460022,0.3639526-0.6970215c0.0579834-0.121521,0.1220703-0.239563,0.1752319-0.3637695   c0.1483154-0.3476563,0.2752075-0.7052002,0.3834839-1.0702515c0.0361938-0.12146,0.0634155-0.246521,0.0950928-0.369812   c0.072937-0.2858887,0.1345825-0.5756226,0.182312-0.869751c0.0203247-0.1245117,0.0415039-0.2486572,0.0571899-0.3746948   C21.9650269,11.8352661,22,11.4212036,22,11c0-0.3656616-0.022644-0.7258911-0.0609741-1.0813599   C21.9255371,9.7937622,21.9005127,9.6726685,21.8824463,9.5492554z" fill="#010101" opacity="0.1"/><path d="M7.9314575,19.3395996c-1.3309937-0.3916626-2.548645-1.0477905-3.5864258-1.9147949   c0.2401733,0.2844849,0.4942017,0.5582275,0.7667236,0.8156738c0.0840454,0.0800171,0.1763306,0.151001,0.2631226,0.2280884   c0.2420044,0.2131958,0.4910889,0.4196167,0.755249,0.6104126c0.0803223,0.0585327,0.1627808,0.1140137,0.244873,0.170166   c0.3149414,0.2136841,0.6416016,0.4140015,0.9844971,0.5940552c0.0269775,0.0142212,0.0531616,0.0298462,0.0802612,0.0438232   C7.6668701,19.7737427,7.8414917,19.5774536,7.9314575,19.3395996z" fill="#010101" opacity="0.1"/><linearGradient gradientUnits="userSpaceOnUse" id="SVGID_1_" x1="1.3796866" x2="21.4812832" y1="7.7484875" y2="17.122015"><stop offset="0" style="stop-color:#FFFFFF;stop-opacity:0.2"/><stop offset="1" style="stop-color:#FFFFFF;stop-opacity:0"/></linearGradient><path d="M23,11c0-6.0654297-4.9345703-11-11-11S1,4.9345703,1,11   c0,3.7992554,1.9188843,7.2311401,5.0636597,9.2436523C5.4341431,20.5808105,5,21.2371216,5,22c0,1.1030273,0.8974609,2,2,2h10   c1.1025391,0,2-0.8969727,2-2c0-0.7630005-0.4342651-1.4194336-1.0639648-1.7565308C21.0805664,18.2315674,23,14.7998657,23,11z" fill="url(#SVGID_1_)"/></g><g/><g/><g/><g/><g/><g/><g/><g/><g/><g/><g/><g/><g/><g/><g/></svg>