<?xml version="1.0" ?><svg enable-background="new 0 0 24 24" id="Layer_1" version="1.1" viewBox="0 0 24 24" xml:space="preserve" xmlns="http://www.w3.org/2000/svg" xmlns:xlink="http://www.w3.org/1999/xlink"><g><path d="M12,0C5.3833008,0,0,5.3828125,0,12s5.3833008,12,12,12s12-5.3828125,12-12S18.6166992,0,12,0z" fill="#303C42"/><path d="M6.4892578,3.0107422c0.152832,0.0039063,0.5883789,0.2119141,1.0737305,0.5   c-0.484375,0.2880859-0.9199219,0.4951172-1.0732422,0.5c-0.2758789,0-0.5-0.2246094-0.5-0.5   S6.2138672,3.0107422,6.4892578,3.0107422z" fill="#BDDDF4"/><path d="M12,23C5.9345703,23,1,18.0654297,1,12c0-3.4042969,1.5551758-6.4516602,3.9915771-8.4709473   c0.0100708,0.8185425,0.6773071,1.4816895,1.4981689,1.4816895c0.6391602,0,1.8100586-0.7617188,2.2841797-1.0888672   c0.1352539-0.0927734,0.2158203-0.2470703,0.2158203-0.4111328S8.9091797,3.1923828,8.7739258,3.0996094   C8.4297485,2.8621216,7.7196045,2.3985596,7.1110229,2.1607056C8.5860596,1.4246826,10.2425537,1,12,1   c6.0654297,0,11,4.9345703,11,11c0,1.7572021-0.4246216,3.4135132-1.1604614,4.8884277   c-0.237854-0.6085815-0.7009277-1.3181763-0.9386597-1.6618652c-0.1865234-0.2695313-0.6357422-0.2695313-0.8222656,0   c-0.3276367,0.4736328-1.0888672,1.6445313-1.0888672,2.2841797c0,0.8206177,0.6626587,1.4874878,1.480835,1.4980469   C18.4512939,21.4449463,15.4041138,23,12,23z" fill="#FED600"/><path d="M20.4897461,18.0107422c-0.2758789,0-0.5-0.2246094-0.5-0.4990234   c0.0039063-0.1533203,0.2119141-0.5888672,0.5-1.0742188c0.2880859,0.484375,0.4960938,0.9208984,0.5,1.0742188   C20.9892578,17.7871094,20.7651367,18.0107422,20.4897461,18.0107422z" fill="#BDDDF4"/><path d="M6.3432617,5.6357422c-0.1953125-0.1953125-0.5117188-0.1953125-0.7070313,0   C3.9360352,7.3359375,3,9.5957031,3,12s0.9360352,4.6640625,2.6362305,6.3642578   C7.390625,20.1191406,9.6953125,20.9960938,12,20.9960938s4.609375-0.8769531,6.3637695-2.6318359   c0.1953125-0.1953125,0.1953125-0.5117188,0-0.7070313L6.3432617,5.6357422z" fill="#303C42"/><path d="M12,20c-2.1367188,0-4.1459961-0.8320313-5.6567383-2.3427734C4.8320313,16.1464844,4,14.1367188,4,12   c0-1.9697266,0.706543-3.8300781,2.0004883-5.2929688L17.2924805,18C15.8300781,19.2939453,13.9692383,20,12,20z" fill="#B72025"/><path d="M4.8537598,12.8537598c0-1.9697266,0.7064819-3.8300171,2.0004272-5.2929077   L6.0004883,6.7070313C4.706543,8.1699219,4,10.0302734,4,12c0,2.1367188,0.8320313,4.1464844,2.3432617,5.6572266   c0.1433105,0.1433105,0.295166,0.2745972,0.4471436,0.4055786C5.5410156,16.612793,4.8537598,14.7872925,4.8537598,12.8537598z" fill="#010101" opacity="0.1"/><path d="M10.2763672,5.9472656l4,2C14.3476563,7.9824219,14.4238281,8,14.5,8   c0.1293945,0,0.2573242-0.0507813,0.3535156-0.1464844c0.1523438-0.1523438,0.1899414-0.3847656,0.09375-0.5771484l-2-4   c-0.1235352-0.2460938-0.4243164-0.3486328-0.6708984-0.2236328c-0.2470703,0.1240234-0.347168,0.4238281-0.2236328,0.6708984   l1.3291016,2.6582031l-2.6582031-1.3291016c-0.2475586-0.125-0.546875-0.0224609-0.6708984,0.2236328   C9.9291992,5.5234375,10.0292969,5.8232422,10.2763672,5.9472656z" fill="#303C42"/><path d="M18.9472656,13.2763672l-1.3291016-2.6582031l2.6582031,1.3291016   c0.2470703,0.1240234,0.546875,0.0224609,0.6708984-0.2236328c0.1235352-0.2470703,0.0234375-0.546875-0.2236328-0.6708984l-4-2   c-0.1928711-0.0957031-0.4243164-0.0585938-0.5771484,0.09375c-0.1523438,0.1523438-0.1899414,0.3847656-0.09375,0.5771484l2,4   C18.140625,13.8984375,18.3168945,14,18.5004883,14c0.0751953,0,0.1513672-0.0166016,0.2231445-0.0527344   C18.9707031,13.8232422,19.0708008,13.5234375,18.9472656,13.2763672z" fill="#303C42"/><g><path d="M22.8789063,10.4572754c-0.0365601-0.2585449-0.0736694-0.5169067-0.1279907-0.7692871    c-0.0299072-0.1390381-0.0708008-0.2738037-0.105896-0.4108276c-0.0597534-0.2327271-0.1199951-0.465271-0.1943359-0.6917725    c-0.0437622-0.1334839-0.0959473-0.2630005-0.1445923-0.3942261c-0.0834351-0.2244873-0.1691284-0.447876-0.2666016-0.6651611    c-0.0542603-0.1212769-0.1143799-0.2392578-0.1728516-0.3582153c-0.109314-0.2216797-0.2228394-0.4406738-0.3463745-0.6536255    c-0.0603638-0.1043091-0.1239014-0.2063599-0.187561-0.3084717c-0.1380615-0.2210693-0.2825928-0.4377441-0.4356079-0.6479492    c-0.0621948-0.0856323-0.1256104-0.1702881-0.1901855-0.2540894c-0.1694336-0.2193604-0.3469238-0.4320068-0.5321045-0.6378174    c-0.0600586-0.0669556-0.119751-0.1342163-0.1814575-0.199646c-0.2027588-0.2147217-0.414856-0.4202271-0.6340332-0.6181641    c-0.0281372-0.0253906-0.0557861-0.0513306-0.0841675-0.0764771C20.9661865,5.7056885,22,8.2290039,22,11    c0,1.5866699-0.3426514,3.0910645-0.9472656,4.4535522c0.2496338,0.3774414,0.5912476,0.9345093,0.7868042,1.4348755    c0.1815796-0.3639526,0.3433838-0.7392578,0.4853516-1.1240845c0.0037231-0.0101929,0.0074463-0.0203247,0.0111694-0.0305176    c0.1283569-0.3510132,0.2349854-0.7120972,0.3276978-1.0784302c0.0141602-0.0567627,0.0303955-0.1127319,0.0436401-0.1698608    c0.0770264-0.3264771,0.1335449-0.6602783,0.1803589-0.9972534c0.0112915-0.0831909,0.0285034-0.1645508,0.0379028-0.2483521    C22.9725952,12.8328247,23,12.4197388,23,12c0-0.3965454-0.0234375-0.7875366-0.0645142-1.1730347    C22.9221191,10.7019653,22.8963623,10.5809937,22.8789063,10.4572754z" fill="#010101" opacity="0.1"/><path d="M13.5465698,22.8788452c0.2772217-0.0393066,0.5532227-0.0820923,0.8234253-0.1417236    c0.1264038-0.027771,0.2493286-0.0640869,0.3740845-0.0961914c0.2567139-0.0662842,0.5117188-0.1370239,0.7608643-0.2211304    c0.118103-0.0397339,0.2338257-0.0844727,0.3500977-0.1281128c0.2526855-0.0950317,0.5018921-0.1968994,0.7453613-0.3096313    c0.1019287-0.0470581,0.2026978-0.0958862,0.3028564-0.1459351c0.2556152-0.1280518,0.5054321-0.265564,0.7492676-0.4124146    c0.0797729-0.0479736,0.1601563-0.0949707,0.2385864-0.1448975c0.2660522-0.1696167,0.5236816-0.3510132,0.7736206-0.5421753    c0.0495605-0.0378418,0.1008301-0.0733032,0.1496582-0.1119385c0.6062622-0.4801636,1.1628418-1.0206909,1.656189-1.6159058    c-0.5304565-0.0068359-0.9920654-0.2918091-1.25354-0.713501C17.2020874,20.5631104,14.2722778,22,11,22    c-2.7709961,0-5.2943115-1.0338135-7.2284546-2.7248535c0.0251465,0.0283813,0.0510864,0.0560303,0.0764771,0.0841675    c0.197937,0.2191772,0.4034424,0.4312744,0.6181641,0.6340332c0.0654297,0.0617065,0.1326904,0.1213989,0.199646,0.1814575    c0.2058105,0.1851807,0.418457,0.3626709,0.6378174,0.5321045c0.0838013,0.0645752,0.168457,0.1279907,0.2540894,0.1901855    c0.2102051,0.1530151,0.4268799,0.2975464,0.6479492,0.4356079c0.1021118,0.0636597,0.2041626,0.1271973,0.3084717,0.187561    c0.2129517,0.1235352,0.4319458,0.2370605,0.6536255,0.3463745c0.1189575,0.0584717,0.2369385,0.1185913,0.3582153,0.1728516    c0.2172852,0.0974731,0.4406738,0.1831665,0.6651611,0.2666016c0.1312256,0.048645,0.2607422,0.1008301,0.3942261,0.1445923    c0.2265015,0.0743408,0.4590454,0.1345825,0.6917725,0.1943359c0.1370239,0.0350952,0.2717896,0.0759888,0.4108276,0.105896    c0.2523804,0.0543213,0.5107422,0.0914307,0.7692871,0.1279907c0.1237183,0.0174561,0.2446899,0.0432129,0.3696899,0.0565796    C11.2124634,22.9765625,11.6034546,23,12,23c0.4057617,0,0.805603-0.0252686,1.2000732-0.0682983    C13.3171387,22.9190063,13.430603,22.8952026,13.5465698,22.8788452z" fill="#010101" opacity="0.1"/></g><linearGradient gradientUnits="userSpaceOnUse" id="SVGID_1_" x1="1.1248375" x2="22.8751621" y1="6.9288282" y2="17.0711708"><stop offset="0" style="stop-color:#FFFFFF;stop-opacity:0.2"/><stop offset="1" style="stop-color:#FFFFFF;stop-opacity:0"/></linearGradient><path d="M12,0C5.3833008,0,0,5.3828125,0,12s5.3833008,12,12,12s12-5.3828125,12-12S18.6166992,0,12,0z" fill="url(#SVGID_1_)"/></g><g/><g/><g/><g/><g/><g/><g/><g/><g/><g/><g/><g/><g/><g/><g/></svg>