<?xml version="1.0" ?><svg enable-background="new 0 0 24 24" id="Layer_1" version="1.1" viewBox="0 0 24 24" xml:space="preserve" xmlns="http://www.w3.org/2000/svg" xmlns:xlink="http://www.w3.org/1999/xlink"><g><path d="M12,0C5.3828125,0,0,5.3833008,0,12s5.3828125,12,12,12s12-5.3833008,12-12S18.6171875,0,12,0z" fill="#303C42"/><path d="M12,23C5.9345703,23,1,18.0654297,1,12S5.9345703,1,12,1s11,4.9345703,11,11S18.0654297,23,12,23z" fill="#FED600"/><path d="M19.0377197,3.5556641c1.5936279,1.9088745,2.5556641,4.3624268,2.5556641,7.0377197   c0,6.0654297-4.9345703,11-11,11c-2.675293,0-5.1288452-0.9620361-7.0377197-2.5556641C5.5750732,21.456665,8.6098633,23,12,23   c6.0654297,0,11-4.9345703,11-11C23,8.6098633,21.456665,5.5750732,19.0377197,3.5556641z" fill="#010101" opacity="0.1"/><circle cx="8" cy="9" fill="#303C42" r="1"/><circle cx="16" cy="9" fill="#303C42" r="1"/><path d="M14,13c-0.2197266,0-0.4375086,0.0395508-0.6835938,0.1259766   c-0.3671875,0.1342773-0.6845703,0.3710938-0.9111328,0.6767578C12.3085938,13.8935547,11.8623047,13.9892578,11.4863281,14   c-0.2753906,0.0083008-0.4931641,0.237793-0.4853516,0.5136719C11.0078125,14.7895508,11.2646484,15.0166016,11.5126953,15   c0.3828125-0.0102539,1.3134766-0.0878906,1.6875-0.5917969c0.1171875-0.1572266,0.2753906-0.2758789,0.4667969-0.3452148   C14.4199219,13.7949219,15,14.3442383,15,15c0,0.5512695-0.4482422,1-1,1c-0.2763672,0-0.5,0.2236328-0.5,0.5S13.7236328,17,14,17   c0.5517578,0,1,0.4487305,1,1s-0.4482422,1-1,1c-0.1044922,0-0.2128906-0.0205078-0.3398438-0.0654297   c-0.1845703-0.0668945-0.3427734-0.1855469-0.4599609-0.3422852c-0.3740234-0.5043945-1.3046875-0.5820313-1.6875-0.5922852   C11.2568359,17.9931641,11.0068359,18.2119141,11,18.4868164C10.9931641,18.7631836,11.2109375,18.9926758,11.4873047,19   c0.3671875,0.0092773,0.8212891,0.1074219,0.9101563,0.1884766c0.234375,0.3144531,0.5517578,0.5512695,0.9355469,0.690918   C13.5624914,19.9604492,13.7802734,20,14,20c1.1025391,0,2-0.8969727,2-2c0-0.5966797-0.2626953-1.1333008-0.6787109-1.5   C15.7373047,16.1333008,16,15.5966797,16,15C16,13.8969727,15.1025391,13,14,13z" fill="#303C42"/><linearGradient gradientUnits="userSpaceOnUse" id="SVGID_1_" x1="1.1248534" x2="22.8751469" y1="6.9288359" y2="17.0711651"><stop offset="0" style="stop-color:#FFFFFF;stop-opacity:0.2"/><stop offset="1" style="stop-color:#FFFFFF;stop-opacity:0"/></linearGradient><path d="M12,0C5.3828125,0,0,5.3833008,0,12s5.3828125,12,12,12s12-5.3833008,12-12S18.6171875,0,12,0z" fill="url(#SVGID_1_)"/></g><g/><g/><g/><g/><g/><g/><g/><g/><g/><g/><g/><g/><g/><g/><g/></svg>