<?xml version="1.0" ?><svg enable-background="new 0 0 24 24" id="Layer_1" version="1.1" viewBox="0 0 24 24" xml:space="preserve" xmlns="http://www.w3.org/2000/svg" xmlns:xlink="http://www.w3.org/1999/xlink"><g><path d="M12,0C5.3828125,0,0,5.3833008,0,12s5.3828125,12,12,12s12-5.3833008,12-12S18.6171875,0,12,0z" fill="#303C42"/><path d="M12,23C5.9345703,23,1,18.0654297,1,12S5.9345703,1,12,1s11,4.9345703,11,11S18.0654297,23,12,23z" fill="#FED600"/><path d="M19.119751,3.630249C20.7561646,5.5509644,21.75,8.0349121,21.75,10.75   c0,6.0654297-4.9345703,11-11,11c-2.7150879,0-5.1990356-0.9938354-7.119751-2.630249C5.6494751,21.4898682,8.6496582,23,12,23   c6.0654297,0,11-4.9345703,11-11C23,8.6496582,21.4898682,5.6494751,19.119751,3.630249z" fill="#010101" opacity="0.1"/><path d="M15.3310547,15.4980469c-0.9375-0.7036133-2.4169922-0.6201172-3.2666016,0.230957l-0.0693359,0.0698242   l-0.1005859-0.0966797c-0.8515625-0.8251953-2.2802734-0.9145508-3.2246094-0.2041016l-1.4697266,1.1020508   c-0.2177734,0.1630859-0.2646484,0.4697266-0.1074219,0.6904297l1.3378906,1.8725586C9.2519531,20.3134766,10.5869141,21,12,21   s2.7480469-0.6865234,3.5693359-1.8369141l1.3378906-1.8725586c0.1572266-0.2207031,0.1103516-0.5273438-0.1074219-0.6904297   L15.3310547,15.4980469z" fill="#303C42"/><path d="M9.2705078,16.2978516c0.5644531-0.425293,1.4189453-0.3720703,1.9287109,0.1220703l0.453125,0.4389648   c0.1953125,0.190918,0.5078125,0.1879883,0.7011719-0.0048828l0.4189453-0.418457   c0.4931641-0.4951172,1.3789063-0.5717773,1.9580078-0.1376953l0.8457031,0.6340942   C14.3476563,17.4832153,13.0147705,17.5,12.9990234,17.5c-0.0771484,0-0.1533203,0.0180664-0.2226563,0.0527344L12,17.940918   l-0.7763672-0.3881836C11.1542969,17.5180664,11.0771484,17.5,11,17.5c-0.8225098,0-1.8337402-0.3410645-2.5145874-0.6140747   L9.2705078,16.2978516z" fill="#E53A35"/><path d="M13.9110107,16.4552612l0.5114136,0.8527222   c0.3660278-0.0838623,0.7631836-0.2007446,1.1537476-0.3760376l-0.8457031-0.6340942   c-0.3491821-0.2617188-0.8041992-0.3171997-1.2230835-0.2277832   C13.6520386,16.1339722,13.7912598,16.2556763,13.9110107,16.4552612z" fill="#010101" opacity="0.1"/><path d="M12,20c-1.0908203,0-2.1210938-0.5302734-2.7548828-1.4179688l-0.3451538-0.4827271   c0.6186523,0.2020874,1.3260498,0.3787842,1.9779663,0.3987427l0.8984375,0.4492188C11.8466797,18.9824219,11.9238281,19,12,19   s0.1533203-0.0175781,0.2236328-0.0527344l0.8994141-0.4501953c0.2905273-0.0103149,1.0494995-0.064209,1.9121704-0.3071899   l-0.2803345,0.3921509C14.1210938,19.4697266,13.0908203,20,12,20z" fill="#E53A35"/><path d="M14.3907471,18.3427124l-0.1710815,0.2393188   c-0.5808716,0.8135986-1.4989014,1.3056641-2.4872437,1.3856812C11.8224487,19.9749756,11.9089355,20,12,20   c1.0908203,0,2.1210938-0.5302734,2.7548828-1.4179688l0.2803345-0.3921509   C14.8106689,18.2531128,14.5947876,18.3024902,14.3907471,18.3427124z" fill="#010101" opacity="0.1"/><path d="M19.7773438,9.0839844l-3-2c-0.1679688-0.1123047-0.3867188-0.1123047-0.5546875,0l-3,2   c-0.2294922,0.1533203-0.2919922,0.4633789-0.1386719,0.6933594s0.4648438,0.2905273,0.6933594,0.1386719L16.5,8.1010742   l2.7226563,1.8149414C19.3076172,9.9726563,19.4042969,10,19.5,10c0.1611328,0,0.3193359-0.078125,0.4160156-0.2226563   C20.0693359,9.5473633,20.0068359,9.2373047,19.7773438,9.0839844z" fill="#303C42"/><path d="M10.2226563,9.9160156C10.3076172,9.9726563,10.4042969,10,10.5,10   c0.1611328,0,0.3193359-0.078125,0.4160156-0.2226563c0.1533203-0.2299805,0.0908203-0.5400391-0.1386719-0.6933594l-3-2   c-0.1679688-0.1123047-0.3867188-0.1123047-0.5546875,0l-3,2C3.9931641,9.2373047,3.9306641,9.5473633,4.0839844,9.7773438   s0.4638672,0.2905273,0.6933594,0.1386719L7.5,8.1010742L10.2226563,9.9160156z" fill="#303C42"/><linearGradient gradientUnits="userSpaceOnUse" id="SVGID_1_" x1="1.1248534" x2="22.8751469" y1="6.9288359" y2="17.0711651"><stop offset="0" style="stop-color:#FFFFFF;stop-opacity:0.2"/><stop offset="1" style="stop-color:#FFFFFF;stop-opacity:0"/></linearGradient><path d="M12,0C5.3828125,0,0,5.3833008,0,12s5.3828125,12,12,12s12-5.3833008,12-12S18.6171875,0,12,0z" fill="url(#SVGID_1_)"/></g><g/><g/><g/><g/><g/><g/><g/><g/><g/><g/><g/><g/><g/><g/><g/></svg>