<?xml version="1.0" ?><svg enable-background="new 0 0 24 24" id="Layer_1" version="1.1" viewBox="0 0 24 24" xml:space="preserve" xmlns="http://www.w3.org/2000/svg" xmlns:xlink="http://www.w3.org/1999/xlink"><g><path d="M12,0C5.3833008,0,0,5.3833008,0,12s5.3833008,12,12,12s12-5.3833008,12-12S18.6166992,0,12,0z" fill="#303C42"/><path d="M12,23C5.9345703,23,1,18.0654297,1,12S5.9345703,1,12,1s11,4.9345703,11,11S18.0654297,23,12,23z" fill="#FED600"/><path d="M19.119751,3.630249C20.7561646,5.5509644,21.75,8.0349121,21.75,10.75   c0,6.0654297-4.9345703,11-11,11c-2.7150879,0-5.1990356-0.9938354-7.119751-2.630249C5.6494751,21.4898682,8.6496582,23,12,23   c6.0654297,0,11-4.9345703,11-11C23,8.6496582,21.4898682,5.6494751,19.119751,3.630249z" fill="#010101" opacity="0.1"/><circle cx="16" cy="9" fill="#303C42" r="1"/><circle cx="8" cy="9" fill="#303C42" r="1"/><path d="M14.9140625,16.2070313C14.1357422,15.4287109,13.1010742,15,12,15   s-2.1357422,0.4287109-2.9140625,1.2070313l-0.9394531,0.9394531c-0.010437,0.010437-0.0106812,0.0261841-0.0200195,0.0373535   c-0.0112305,0.0126953-0.0282593,0.0177612-0.0380859,0.0319824C7.7612305,17.6899414,7,18.8608398,7,19.5   C7,20.3271484,7.6728516,21,8.5,21s1.5-0.6728516,1.5-1.5c0-0.394043-0.2894897-0.989624-0.5880737-1.5H15.5   c0.2021484,0,0.3847656-0.121582,0.4619141-0.3085938c0.0776367-0.1870117,0.034668-0.4018555-0.1083984-0.5449219   L14.9140625,16.2070313z" fill="#303C42"/><path d="M8.5,20C8.2241211,20,8,19.7758789,8,19.5004883c0.0039063-0.152832,0.2119141-0.5883789,0.5-1.0737305   C8.7875977,18.9111328,8.9956055,19.3466797,9,19.5C9,19.7758789,8.7753906,20,8.5,20z" fill="#38A4DD"/><path d="M9.7070313,17l0.0859375-0.0859375c1.1787109-1.1787109,3.2353516-1.1787109,4.4140625,0L14.2929688,17   H9.7070313z" fill="#B72025"/><linearGradient gradientUnits="userSpaceOnUse" id="SVGID_1_" x1="1.1249185" x2="22.875082" y1="6.9288664" y2="17.0711346"><stop offset="0" style="stop-color:#FFFFFF;stop-opacity:0.2"/><stop offset="1" style="stop-color:#FFFFFF;stop-opacity:0"/></linearGradient><path d="M12,0C5.3833008,0,0,5.3833008,0,12s5.3833008,12,12,12s12-5.3833008,12-12S18.6166992,0,12,0z" fill="url(#SVGID_1_)"/></g><g/><g/><g/><g/><g/><g/><g/><g/><g/><g/><g/><g/><g/><g/><g/></svg>