<?xml version="1.0" ?><svg enable-background="new 0 0 24 24" id="Layer_1" version="1.1" viewBox="0 0 24 24" xml:space="preserve" xmlns="http://www.w3.org/2000/svg" xmlns:xlink="http://www.w3.org/1999/xlink"><g><path d="M12,0C5.3828125,0,0,5.3828125,0,12s5.3828125,12,12,12s12-5.3828125,12-12S18.6171875,0,12,0z" fill="#303C42"/><path d="M12,23C5.9345703,23,1,18.0654297,1,12S5.9345703,1,12,1s11,4.9345703,11,11S18.0654297,23,12,23z" fill="#FED600"/><path d="M19.119751,3.630249C20.7561646,5.5509644,21.75,8.0349121,21.75,10.75   c0,6.0654297-4.9345703,11-11,11c-2.7150879,0-5.1990356-0.9938354-7.119751-2.630249C5.6494751,21.4898682,8.6496582,23,12,23   c6.0654297,0,11-4.9345703,11-11C23,8.6496582,21.4898682,5.6494751,19.119751,3.630249z" fill="#010101" opacity="0.1"/><path d="M18.5,15h-13c-0.1523438,0-0.296875,0.0703125-0.3916016,0.1894531   c-0.0957031,0.1201172-0.1298828,0.2763672-0.0947266,0.4257813C5.75,18.7353516,8.6884766,21,12,21   c3.3076172,0,6.2460938-2.2646484,6.9863281-5.3847656c0.0351563-0.1484375,0.0009766-0.3056641-0.09375-0.4248047   C18.7978516,15.0703125,18.6533203,15,18.5,15z" fill="#303C42"/><path d="M9.291626,19.3652344C9.6117554,19.1681519,10.013855,19,10.5,19   c0.4316406,0,0.8515625,0.1171875,1.2480469,0.3476563c0.15625,0.0917969,0.3476563,0.0917969,0.5039063,0   c0.7872314-0.4580688,1.7056274-0.4377441,2.4692993,0.0112305C13.8851929,19.7671509,12.9557495,20,12,20   C11.048584,20,10.1242065,19.7689209,9.291626,19.3652344z" fill="#E53A35"/><path d="M15.6572266,18.7931519C14.5997314,17.9495239,13.1902466,17.7685547,12,18.3496094   c-1.1763916-0.5731201-2.5663452-0.4059448-3.6450806,0.4557495C7.3668823,18.0993652,6.5839844,17.1277466,6.1708984,16H17.828125   C17.4158325,17.1217041,16.6376953,18.0880737,15.6572266,18.7931519z" fill="#B72025"/><path d="M7.7892418,18.1420307C7.2529316,17.4868507,7.7172303,16.5,8.5639229,16.5h9.0326958   c0.0803833-0.1652222,0.1679077-0.3270264,0.2315063-0.5H6.1708984c0.4130859,1.1277466,1.1959839,2.0993652,2.184021,2.8053589   c0.0115356-0.0092163,0.0241699-0.0158081,0.0357666-0.0248413C8.1753931,18.5810719,7.9740491,18.3677979,7.7892418,18.1420307z" fill="#010101" opacity="0.1"/><circle cx="8" cy="8" fill="#303C42" r="3"/><path d="M8,6c1.1025391,0,2,0.8974609,2,2s-0.8974609,2-2,2c-0.1975098,0-0.3845825-0.0376587-0.5649414-0.0912476   C7.65979,9.5256348,7.6251221,9.0313721,7.296875,8.703125C6.9677734,8.3740234,6.4744263,8.3392334,6.0911865,8.5646973   C6.0375977,8.3843994,6,8.1973877,6,8C6,6.8974609,6.8974609,6,8,6z" fill="#FFFFFF"/><path d="M9.1395264,6.3604736C9.3654175,6.6843262,9.5,7.0761719,9.5,7.5   c0,1.081665-0.8651733,1.9606323-1.9389648,1.9938354c-0.015564,0.1437378-0.050293,0.2858276-0.1259766,0.414917   C7.6154175,9.9623413,7.8024902,10,8,10c1.1025391,0,2-0.8974609,2-2C10,7.3212891,9.6582031,6.722229,9.1395264,6.3604736z" fill="#010101" opacity="0.1"/><circle cx="16" cy="8" fill="#303C42" r="3"/><path d="M16,10c-1.1025391,0-2-0.8974609-2-2s0.8974609-2,2-2c0.1975098,0,0.3845215,0.0376587,0.5648804,0.0912476   C16.34021,6.4743042,16.374939,6.968689,16.703125,7.296875c0.1953125,0.1953125,0.4511719,0.2919922,0.7070313,0.2919922   c0.1752319,0,0.3427124-0.062439,0.4985352-0.1538086C17.9623413,7.6154175,18,7.8024902,18,8C18,9.1025391,17.1025391,10,16,10z" fill="#FFFFFF"/><path d="M17.9086914,7.4350586c-0.1308594,0.0767212-0.2713013,0.1240234-0.4163208,0.1401367   C17.4518433,8.6422119,16.5767822,9.5,15.5,9.5c-0.4238281,0-0.8156738-0.1345825-1.1395264-0.3604736   C14.722229,9.6582031,15.3212891,10,16,10c1.1025391,0,2-0.8974609,2-2C18,7.8024902,17.9623413,7.6154175,17.9086914,7.4350586z" fill="#010101" opacity="0.1"/><linearGradient gradientUnits="userSpaceOnUse" id="SVGID_1_" x1="1.1247724" x2="22.875227" y1="6.9287982" y2="17.0712013"><stop offset="0" style="stop-color:#FFFFFF;stop-opacity:0.2"/><stop offset="1" style="stop-color:#FFFFFF;stop-opacity:0"/></linearGradient><path d="M12,0C5.3828125,0,0,5.3828125,0,12s5.3828125,12,12,12s12-5.3828125,12-12S18.6171875,0,12,0z" fill="url(#SVGID_1_)"/></g><g/><g/><g/><g/><g/><g/><g/><g/><g/><g/><g/><g/><g/><g/><g/></svg>