<?xml version="1.0" ?><svg enable-background="new 0 0 24 24" id="Layer_1" version="1.1" viewBox="0 0 24 24" xml:space="preserve" xmlns="http://www.w3.org/2000/svg" xmlns:xlink="http://www.w3.org/1999/xlink"><g><path d="M12,0C5.3833008,0,0,5.3828125,0,12s5.3833008,12,12,12s12-5.3828125,12-12S18.6166992,0,12,0z" fill="#303C42"/><path d="M12,23C5.9345703,23,1,18.0654297,1,12S5.9345703,1,12,1s11,4.9345703,11,11S18.0654297,23,12,23z" fill="#FED600"/><path d="M19.119751,3.630249C20.7561646,5.5509644,21.75,8.0349121,21.75,10.75   c0,6.0654297-4.9345703,11-11,11c-2.7150879,0-5.1990356-0.9938354-7.119751-2.630249C5.6494751,21.4898682,8.6496582,23,12,23   c6.0654297,0,11-4.9345703,11-11C23,8.6496582,21.4898682,5.6494751,19.119751,3.630249z" fill="#010101" opacity="0.1"/><path d="M14.2763672,7.9472656l2,1C16.3466797,8.9824219,16.4233398,9,16.5,9   s0.1533203-0.0175781,0.2236328-0.0527344l2-1c0.2470703-0.1240234,0.347168-0.4238281,0.2236328-0.6708984   c-0.1240234-0.2460938-0.4233398-0.3476563-0.6708984-0.2236328L16.5,7.9414063l-1.7763672-0.8886719   c-0.2460938-0.1240234-0.546875-0.0224609-0.6708984,0.2236328C13.9291992,7.5234375,14.0292969,7.8232422,14.2763672,7.9472656z" fill="#303C42"/><path d="M5.2763672,7.9472656l2,1C7.3466797,8.9824219,7.4233398,9,7.5,9s0.1533203-0.0175781,0.2236328-0.0527344   l2-1c0.2470703-0.1240234,0.347168-0.4238281,0.2236328-0.6708984C9.8227539,7.0302734,9.5234375,6.9287109,9.2763672,7.0527344   L7.5,7.9414063L5.7236328,7.0527344c-0.246582-0.1240234-0.5463867-0.0224609-0.6708984,0.2236328   C4.9291992,7.5234375,5.0292969,7.8232422,5.2763672,7.9472656z" fill="#303C42"/><path d="M12,15c-0.0009766,0-0.0019531,0-0.0029297,0c-4.199707,0-5.8295898,2.1103516-5.8969727,2.2001953   c-0.1650391,0.2197266-0.1206055,0.5302734,0.0981445,0.6962891c0.2197266,0.1660156,0.5322266,0.1240234,0.699707-0.09375   C6.9545898,17.7294922,8.3320313,16,11.9970703,16C11.9980469,16,11.9990234,16,12,16   c3.6669922,0.0009766,5.0454102,1.7294922,5.1000977,1.7998047C17.1982422,17.9306641,17.3486328,18,17.5004883,18   c0.1044922,0,0.2094727-0.0322266,0.2998047-0.0996094c0.2207031-0.1660156,0.2651367-0.4794922,0.0996094-0.7001953   C17.8325195,17.1103516,16.2016602,15.0009766,12,15z" fill="#303C42"/><path d="M18.0888672,9.2158203C17.8203125,9.6044922,17.5,10.1425781,17.5,10.5c0,0.5517578,0.4487305,1,1,1   s1-0.4482422,1-1c0-0.3574219-0.3203125-0.8955078-0.5888672-1.2841797   C18.7246094,8.9462891,18.2753906,8.9462891,18.0888672,9.2158203z" fill="#303C42"/><path d="M19.4111328,12.7158203c-0.1865234-0.2695313-0.6357422-0.2695313-0.8222656,0   C18.3203125,13.1044922,18,13.6425781,18,14c0,0.5517578,0.4487305,1,1,1s1-0.4482422,1-1   C20,13.6425781,19.6796875,13.1044922,19.4111328,12.7158203z" fill="#303C42"/><path d="M5.5,11.5c0.5512695,0,1-0.4482422,1-1c0-0.3574219-0.3203125-0.8955078-0.5888672-1.2841797   c-0.1865234-0.2695313-0.6357422-0.2695313-0.8222656,0C4.8203125,9.6044922,4.5,10.1425781,4.5,10.5   C4.5,11.0517578,4.9487305,11.5,5.5,11.5z" fill="#303C42"/><path d="M4.5888672,12.7158203C4.3203125,13.1044922,4,13.6425781,4,14c0,0.5517578,0.4487305,1,1,1   s1-0.4482422,1-1c0-0.3574219-0.3203125-0.8955078-0.5888672-1.2841797   C5.2246094,12.4462891,4.7753906,12.4462891,4.5888672,12.7158203z" fill="#303C42"/><linearGradient gradientUnits="userSpaceOnUse" id="SVGID_1_" x1="1.1248375" x2="22.8751621" y1="6.9288282" y2="17.0711708"><stop offset="0" style="stop-color:#FFFFFF;stop-opacity:0.2"/><stop offset="1" style="stop-color:#FFFFFF;stop-opacity:0"/></linearGradient><path d="M12,0C5.3833008,0,0,5.3828125,0,12s5.3833008,12,12,12s12-5.3828125,12-12S18.6166992,0,12,0z" fill="url(#SVGID_1_)"/></g><g/><g/><g/><g/><g/><g/><g/><g/><g/><g/><g/><g/><g/><g/><g/></svg>